<svg xmlns="http://www.w3.org/2000/svg" viewBox="0 0 230 85" width="230" height="85">
  <!-- Alewife Version 3 - Detailed realistic approach -->

  <!-- Shadow for depth -->
  <ellipse cx="115" cy="50" rx="80" ry="12" fill="#4A6A7F" opacity="0.2"/>

  <!-- Main body -->
  <path d="M 35 42.5 Q 70 37, 115 36.5 Q 160 37, 190 41 Q 200 43, 203 43 L 200 46 Q 190 50, 160 52 Q 115 53.5, 70 52 Q 45 50, 35 47 Z" fill="#6B8BA3"/>

  <!-- Silvery sides -->
  <path d="M 42 42.5 Q 75 44, 120 44.5 Q 165 44, 195 42.5 Q 165 49, 120 49.5 Q 75 49, 42 46 Z" fill="#D8E4ED" opacity="0.95"/>

  <!-- Bright silver highlight -->
  <path d="M 48 42 Q 80 43, 125 43.5 Q 170 43, 195 41.5" stroke="#F5FAFD" stroke-width="2.5" fill="none" opacity="0.8" stroke-linecap="round"/>

  <!-- Secondary shimmer -->
  <path d="M 50 45 Q 85 46, 130 46.5 Q 175 46, 195 44.5" stroke="#EBF4F9" stroke-width="1.5" fill="none" opacity="0.6" stroke-linecap="round"/>

  <!-- Head structure - angular -->
  <path d="M 35 42.5 L 30 39 L 23 37 L 16 37.5 L 11 40 L 8 43.5 L 8 47 L 11 50.5 L 16 53 L 23 53.5 L 30 52 L 35 48.5 Z" fill="#5A7A8F"/>

  <!-- Snout detail -->
  <path d="M 16 37.5 L 11 40 L 8 43.5 L 8 47 L 11 50.5 L 16 53 L 15 48 L 14 43.5 Z" fill="#4A6A7F"/>

  <!-- Mouth - small and upturned (plankton feeder) -->
  <path d="M 11 40 L 8 41.5 L 6.5 43.5 L 8 45.5 L 11 47" stroke="#2A4A5F" stroke-width="2.5" fill="none" stroke-linecap="round"/>
  <ellipse cx="7" cy="43.5" rx="2" ry="3" fill="#1A3A4F" opacity="0.7"/>

  <!-- Lower jaw -->
  <path d="M 11 47 L 13 49 L 17 49.5 L 19 48" stroke="#4A6A7F" stroke-width="1.2" fill="none"/>

  <!-- Large eye (key baitfish feature) -->
  <circle cx="21" cy="41" r="7.5" fill="#F8F3EB"/>
  <circle cx="22" cy="40" r="6" fill="#1A1A1A"/>
  <circle cx="23.5" cy="38.5" r="2.5" fill="#FFFFFF"/>
  <path d="M 16 41 Q 21 37, 26 41" stroke="#4A6A7F" stroke-width="1" fill="none" opacity="0.4"/>

  <!-- Gill plate structure -->
  <path d="M 32 39 Q 40 41, 42 45 Q 40 50, 32 52 L 30 50 Q 37 47.5, 39 45 Q 37 42.5, 30 40 Z" fill="#6B8BA3" stroke="#4A6A7F" stroke-width="1.8" opacity="0.95"/>

  <!-- Gill opening with radiating lines -->
  <path d="M 32 39 Q 34 45, 32 51" stroke="#2A4A5F" stroke-width="2.5" fill="none"/>
  <path d="M 35 41 Q 36 45, 35 49" stroke="#3A5A6F" stroke-width="1.5" fill="none" opacity="0.7"/>
  <path d="M 37 42 Q 38 45, 37 48" stroke="#4A6A7F" stroke-width="1" fill="none" opacity="0.5"/>
  <path d="M 39 42.5 Q 39.5 45, 39 47.5" stroke="#5A7A8F" stroke-width="0.8" fill="none" opacity="0.4"/>

  <!-- Dorsal fin with rays -->
  <path d="M 100 24 L 96 21 L 98 38 L 103 39 L 108 39 L 113 39 L 118 39 L 121 38 L 123 21 L 119 24 Z" fill="#5A7A8F" stroke="#4A6A7F" stroke-width="1.3" opacity="0.9"/>
  <line x1="100" y1="25" x2="101" y2="38" stroke="#4A6A7F" stroke-width="0.8" opacity="0.5"/>
  <line x1="106" y1="23" x2="107" y2="39" stroke="#4A6A7F" stroke-width="0.8" opacity="0.5"/>
  <line x1="112" y1="23" x2="113" y2="39" stroke="#4A6A7F" stroke-width="0.8" opacity="0.5"/>
  <line x1="118" y1="25" x2="118" y2="38" stroke="#4A6A7F" stroke-width="0.8" opacity="0.5"/>

  <!-- Pectoral fin with rays -->
  <path d="M 37 49 L 34 62 L 39 67 L 46 68 L 49 64 L 47 52 Z" fill="#8AA8BC" opacity="0.8" stroke="#5A7A8F" stroke-width="1.2"/>
  <line x1="39" y1="52" x2="37" y2="64" stroke="#5A7A8F" stroke-width="0.7" opacity="0.5"/>
  <line x1="42" y1="51" x2="40" y2="66" stroke="#5A7A8F" stroke-width="0.7" opacity="0.5"/>
  <line x1="45" y1="51" x2="44" y2="67" stroke="#5A7A8F" stroke-width="0.7" opacity="0.5"/>

  <!-- Pelvic fins -->
  <path d="M 90 52 L 86 64 L 90 68 L 95 67 L 96 64 L 95 54 Z" fill="#8AA8BC" opacity="0.8" stroke="#5A7A8F" stroke-width="1.2"/>
  <line x1="91" y1="54" x2="88" y2="65" stroke="#5A7A8F" stroke-width="0.7" opacity="0.5"/>

  <!-- Anal fin with rays -->
  <path d="M 140 51 L 136 54 L 138 62 L 145 64 L 153 63 L 159 60 L 161 54 L 157 51 Z" fill="#8AA8BC" opacity="0.8" stroke="#5A7A8F" stroke-width="1.2"/>
  <line x1="143" y1="53" x2="143" y2="63" stroke="#5A7A8F" stroke-width="0.7" opacity="0.5"/>
  <line x1="149" y1="53" x2="150" y2="63" stroke="#5A7A8F" stroke-width="0.7" opacity="0.5"/>
  <line x1="155" y1="53" x2="156" y2="61" stroke="#5A7A8F" stroke-width="0.7" opacity="0.5"/>

  <!-- Forked tail with rays -->
  <path d="M 190 41 Q 205 34, 213 29 L 222 32 L 227 40 L 225 43 L 215 48 L 203 50 L 190 48 Z" fill="#6B8BA3" stroke="#4A6A7F" stroke-width="1.5" opacity="0.9"/>
  <path d="M 190 48 Q 205 50, 213 55 L 222 58 L 227 52 L 225 48 L 215 48 L 203 50 Z" fill="#6B8BA3" stroke="#4A6A7F" stroke-width="1.5" opacity="0.9"/>
  <line x1="195" y1="43" x2="216" y2="34" stroke="#4A6A7F" stroke-width="0.8" opacity="0.5"/>
  <line x1="200" y1="44" x2="221" y2="37" stroke="#4A6A7F" stroke-width="0.8" opacity="0.5"/>
  <line x1="195" y1="47" x2="216" y2="54" stroke="#4A6A7F" stroke-width="0.8" opacity="0.5"/>
  <line x1="200" y1="46" x2="221" y2="51" stroke="#4A6A7F" stroke-width="0.8" opacity="0.5"/>

  <!-- Detailed scale pattern - 4 rows -->
  <g opacity="0.45">
    <!-- Row 1 - upper body -->
    <circle cx="50" cy="39" r="2.3" fill="none" stroke="#4A6A7F" stroke-width="0.7"/>
    <circle cx="56" cy="39.5" r="2.3" fill="none" stroke="#4A6A7F" stroke-width="0.7"/>
    <circle cx="62" cy="39" r="2.3" fill="none" stroke="#4A6A7F" stroke-width="0.7"/>
    <circle cx="68" cy="39.5" r="2.3" fill="none" stroke="#4A6A7F" stroke-width="0.7"/>
    <circle cx="74" cy="39" r="2.3" fill="none" stroke="#4A6A7F" stroke-width="0.7"/>
    <circle cx="80" cy="39.5" r="2.3" fill="none" stroke="#4A6A7F" stroke-width="0.7"/>
    <circle cx="86" cy="39" r="2.3" fill="none" stroke="#4A6A7F" stroke-width="0.7"/>
    <circle cx="92" cy="39.5" r="2.3" fill="none" stroke="#4A6A7F" stroke-width="0.7"/>
    <circle cx="98" cy="39" r="2.3" fill="none" stroke="#4A6A7F" stroke-width="0.7"/>
    <circle cx="104" cy="39.5" r="2.3" fill="none" stroke="#4A6A7F" stroke-width="0.7"/>
    <circle cx="110" cy="39" r="2.3" fill="none" stroke="#4A6A7F" stroke-width="0.7"/>
    <circle cx="116" cy="39.5" r="2.3" fill="none" stroke="#4A6A7F" stroke-width="0.7"/>
    <circle cx="122" cy="39" r="2.3" fill="none" stroke="#4A6A7F" stroke-width="0.7"/>
    <circle cx="128" cy="39.5" r="2.3" fill="none" stroke="#4A6A7F" stroke-width="0.7"/>
    <circle cx="134" cy="39" r="2.3" fill="none" stroke="#4A6A7F" stroke-width="0.7"/>
    <circle cx="140" cy="39.5" r="2.3" fill="none" stroke="#4A6A7F" stroke-width="0.7"/>
    <circle cx="146" cy="39" r="2.3" fill="none" stroke="#4A6A7F" stroke-width="0.7"/>
    <circle cx="152" cy="39.5" r="2.3" fill="none" stroke="#4A6A7F" stroke-width="0.7"/>
    <circle cx="158" cy="39" r="2.3" fill="none" stroke="#4A6A7F" stroke-width="0.7"/>
    <circle cx="164" cy="39.5" r="2.3" fill="none" stroke="#4A6A7F" stroke-width="0.7"/>

    <!-- Row 2 -->
    <circle cx="53" cy="43" r="2.3" fill="none" stroke="#4A6A7F" stroke-width="0.7"/>
    <circle cx="59" cy="43.5" r="2.3" fill="none" stroke="#4A6A7F" stroke-width="0.7"/>
    <circle cx="65" cy="43" r="2.3" fill="none" stroke="#4A6A7F" stroke-width="0.7"/>
    <circle cx="71" cy="43.5" r="2.3" fill="none" stroke="#4A6A7F" stroke-width="0.7"/>
    <circle cx="77" cy="43" r="2.3" fill="none" stroke="#4A6A7F" stroke-width="0.7"/>
    <circle cx="83" cy="43.5" r="2.3" fill="none" stroke="#4A6A7F" stroke-width="0.7"/>
    <circle cx="89" cy="43" r="2.3" fill="none" stroke="#4A6A7F" stroke-width="0.7"/>
    <circle cx="95" cy="43.5" r="2.3" fill="none" stroke="#4A6A7F" stroke-width="0.7"/>
    <circle cx="101" cy="43" r="2.3" fill="none" stroke="#4A6A7F" stroke-width="0.7"/>
    <circle cx="107" cy="43.5" r="2.3" fill="none" stroke="#4A6A7F" stroke-width="0.7"/>
    <circle cx="113" cy="43" r="2.3" fill="none" stroke="#4A6A7F" stroke-width="0.7"/>
    <circle cx="119" cy="43.5" r="2.3" fill="none" stroke="#4A6A7F" stroke-width="0.7"/>
    <circle cx="125" cy="43" r="2.3" fill="none" stroke="#4A6A7F" stroke-width="0.7"/>
    <circle cx="131" cy="43.5" r="2.3" fill="none" stroke="#4A6A7F" stroke-width="0.7"/>
    <circle cx="137" cy="43" r="2.3" fill="none" stroke="#4A6A7F" stroke-width="0.7"/>
    <circle cx="143" cy="43.5" r="2.3" fill="none" stroke="#4A6A7F" stroke-width="0.7"/>
    <circle cx="149" cy="43" r="2.3" fill="none" stroke="#4A6A7F" stroke-width="0.7"/>
    <circle cx="155" cy="43.5" r="2.3" fill="none" stroke="#4A6A7F" stroke-width="0.7"/>
    <circle cx="161" cy="43" r="2.3" fill="none" stroke="#4A6A7F" stroke-width="0.7"/>
    <circle cx="167" cy="43.5" r="2.3" fill="none" stroke="#4A6A7F" stroke-width="0.7"/>

    <!-- Row 3 -->
    <circle cx="50" cy="47" r="2.3" fill="none" stroke="#4A6A7F" stroke-width="0.7"/>
    <circle cx="56" cy="47.5" r="2.3" fill="none" stroke="#4A6A7F" stroke-width="0.7"/>
    <circle cx="62" cy="47" r="2.3" fill="none" stroke="#4A6A7F" stroke-width="0.7"/>
    <circle cx="68" cy="47.5" r="2.3" fill="none" stroke="#4A6A7F" stroke-width="0.7"/>
    <circle cx="74" cy="47" r="2.3" fill="none" stroke="#4A6A7F" stroke-width="0.7"/>
    <circle cx="80" cy="47.5" r="2.3" fill="none" stroke="#4A6A7F" stroke-width="0.7"/>
    <circle cx="86" cy="47" r="2.3" fill="none" stroke="#4A6A7F" stroke-width="0.7"/>
    <circle cx="92" cy="47.5" r="2.3" fill="none" stroke="#4A6A7F" stroke-width="0.7"/>
    <circle cx="98" cy="47" r="2.3" fill="none" stroke="#4A6A7F" stroke-width="0.7"/>
    <circle cx="104" cy="47.5" r="2.3" fill="none" stroke="#4A6A7F" stroke-width="0.7"/>
    <circle cx="110" cy="47" r="2.3" fill="none" stroke="#4A6A7F" stroke-width="0.7"/>
    <circle cx="116" cy="47.5" r="2.3" fill="none" stroke="#4A6A7F" stroke-width="0.7"/>
    <circle cx="122" cy="47" r="2.3" fill="none" stroke="#4A6A7F" stroke-width="0.7"/>
    <circle cx="128" cy="47.5" r="2.3" fill="none" stroke="#4A6A7F" stroke-width="0.7"/>
    <circle cx="134" cy="47" r="2.3" fill="none" stroke="#4A6A7F" stroke-width="0.7"/>
    <circle cx="140" cy="47.5" r="2.3" fill="none" stroke="#4A6A7F" stroke-width="0.7"/>
    <circle cx="146" cy="47" r="2.3" fill="none" stroke="#4A6A7F" stroke-width="0.7"/>
    <circle cx="152" cy="47.5" r="2.3" fill="none" stroke="#4A6A7F" stroke-width="0.7"/>
    <circle cx="158" cy="47" r="2.3" fill="none" stroke="#4A6A7F" stroke-width="0.7"/>
    <circle cx="164" cy="47.5" r="2.3" fill="none" stroke="#4A6A7F" stroke-width="0.7"/>
  </g>

  <!-- Dark dorsal stripe (diagnostic feature) -->
  <path d="M 35 36 Q 85 33, 145 34 Q 175 35, 193 38" stroke="#3A5A6F" stroke-width="4" fill="none" opacity="0.65" stroke-linecap="round"/>

  <!-- Iridescent spots on back -->
  <g opacity="0.7">
    <circle cx="58" cy="37" r="1.8" fill="#9ABBD4"/>
    <circle cx="73" cy="36" r="1.8" fill="#9ABBD4"/>
    <circle cx="88" cy="36.5" r="1.8" fill="#9ABBD4"/>
    <circle cx="103" cy="36" r="1.8" fill="#9ABBD4"/>
    <circle cx="118" cy="36.5" r="1.8" fill="#9ABBD4"/>
    <circle cx="133" cy="36" r="1.8" fill="#9ABBD4"/>
    <circle cx="148" cy="36.5" r="1.8" fill="#9ABBD4"/>
    <circle cx="163" cy="37" r="1.8" fill="#9ABBD4"/>
    <circle cx="178" cy="38" r="1.8" fill="#9ABBD4"/>
  </g>

  <!-- Body outline with gap at mouth -->
  <path d="M 11 40 Q 20 35, 35 34 Q 70 32, 115 32 Q 160 33, 190 37" stroke="#4A6A7F" stroke-width="1.2" fill="none" opacity="0.4"/>
  <path d="M 11 50.5 Q 20 56, 35 58 Q 70 60, 115 59 Q 160 58, 190 54" stroke="#4A6A7F" stroke-width="1.2" fill="none" opacity="0.4"/>
</svg>
