<svg xmlns="http://www.w3.org/2000/svg" viewBox="0 0 240 100" width="240" height="100">
  <!-- Alewife Option 2 - Simplified game-friendly style -->

  <!-- Body - deep oval shape, very silvery -->
  <ellipse cx="120" cy="50" rx="100" ry="28" fill="#F5F8FC" stroke="#5070A0" stroke-width="2.5"/>

  <!-- Dark back - almost black -->
  <ellipse cx="120" cy="38" rx="95" ry="12" fill="#0A1520" opacity="0.9"/>

  <!-- Iridescent purple/pink layer -->
  <ellipse cx="120" cy="40" rx="90" ry="8" fill="#B090D0" opacity="0.6"/>
  <ellipse cx="90" cy="42" rx="35" ry="5" fill="#E0A0C0" opacity="0.5"/>
  <ellipse cx="160" cy="42" rx="40" ry="5" fill="#A080D0" opacity="0.5"/>

  <!-- Silver shine -->
  <ellipse cx="120" cy="50" rx="90" ry="6" fill="#FFFFFF" opacity="0.95"/>
  <path d="M 40 50 Q 120 49, 210 50" stroke="#FAFCFF" stroke-width="3.5" fill="none" opacity="0.9"/>

  <!-- Pink belly tint -->
  <ellipse cx="120" cy="62" rx="85" ry="12" fill="#FFE8F0" opacity="0.6"/>

  <!-- Head -->
  <ellipse cx="25" cy="50" rx="18" ry="22" fill="#DDE8F0" stroke="#5070A0" stroke-width="2"/>

  <!-- Small mouth -->
  <path d="M 10 48 L 7 50 L 10 52" stroke="#304050" stroke-width="3.5" fill="none" stroke-linecap="round"/>
  <circle cx="8" cy="50" r="2" fill="#203040"/>

  <!-- HUGE eye -->
  <circle cx="23" cy="47" r="10" fill="#F8F5F0"/>
  <circle cx="24" cy="46" r="8" fill="#0A0A0A"/>
  <circle cx="25.5" cy="44" r="3.5" fill="#FFFFFF"/>
  <circle cx="24" cy="48" r="2" fill="#606060" opacity="0.3"/>

  <!-- Gill -->
  <path d="M 35 45 Q 40 50, 35 55" stroke="#4A5A6A" stroke-width="2.5" fill="none"/>

  <!-- Tail - forked -->
  <path d="M 215 40 L 230 32 L 235 38 L 228 46 L 220 50 Z" fill="#A8B8C8" stroke="#5070A0" stroke-width="2"/>
  <path d="M 215 60 L 230 68 L 235 62 L 228 46 L 220 50 Z" fill="#A8B8C8" stroke="#5070A0" stroke-width="2"/>

  <!-- Dorsal fin - small -->
  <path d="M 110 25 L 105 20 L 112 38 L 118 38 L 125 38 L 127 20 L 122 25 Z" fill="#98A8B8" stroke="#5070A0" stroke-width="1.5"/>

  <!-- Pectoral fin -->
  <path d="M 38 55 L 34 65 L 40 68 L 44 65 L 42 57 Z" fill="#B8C8D8" opacity="0.85" stroke="#6080A0" stroke-width="1.3"/>

  <!-- Pelvic fin -->
  <path d="M 105 60 L 102 68 L 107 70 L 110 67 L 108 61 Z" fill="#B8C8D8" opacity="0.85" stroke="#6080A0" stroke-width="1.3"/>

  <!-- Anal fin -->
  <path d="M 155 58 L 152 61 L 155 67 L 162 68 L 167 65 L 165 59 Z" fill="#B8C8D8" opacity="0.85" stroke="#6080A0" stroke-width="1.3"/>

  <!-- Prominent dark stripe -->
  <path d="M 40 38 Q 100 35, 170 37 Q 210 39, 220 42"
        stroke="#00081A" stroke-width="7" fill="none" opacity="0.85" stroke-linecap="round"/>
  <path d="M 42 40 Q 102 37, 172 39 Q 212 41, 218 44"
        stroke="#1A2535" stroke-width="5" fill="none" opacity="0.65" stroke-linecap="round"/>
</svg>
