<svg xmlns="http://www.w3.org/2000/svg" viewBox="0 0 220 75" width="220" height="75">
  <!-- Alewife Version 2 - Cleaner stylized approach -->

  <!-- Body shape -->
  <path d="M 25 37.5 Q 18 35, 12 37.5 L 8 37.5 L 12 40 Q 18 43, 28 42 L 60 41 Q 120 40, 160 41 L 180 42 Q 195 44, 205 37.5 Q 195 31, 180 33 L 160 34 Q 120 35, 60 34 L 28 33 Q 20 32, 25 37.5 Z" fill="#6B8BA3" stroke="#4A6A7F" stroke-width="1.8"/>

  <!-- Silvery belly -->
  <path d="M 28 37.5 Q 60 40, 120 40.5 Q 160 40, 180 37.5 Q 160 42, 120 42 Q 60 42, 28 38.5 Z" fill="#E8F0F6" opacity="0.95"/>

  <!-- Silver shimmer highlight -->
  <path d="M 35 37 Q 70 38, 130 38.5 Q 170 38, 180 36.5" stroke="#F5FAFC" stroke-width="2" fill="none" opacity="0.7" stroke-linecap="round"/>

  <!-- Head structure -->
  <path d="M 28 33 L 24 30 L 18 28 L 12 29 L 8 32 L 6 36 L 8 40 L 12 43 L 18 44 L 24 42 L 28 39 Z" fill="#5A7A8F" stroke="#4A6A7F" stroke-width="1.5"/>

  <!-- Mouth opening -->
  <path d="M 8 32 L 5 34 L 3 37 L 5 40 L 8 42" stroke="#3A5A6F" stroke-width="2" fill="none" stroke-linecap="round"/>
  <ellipse cx="4" cy="37" rx="1.5" ry="2" fill="#2A4A5F"/>

  <!-- Gill plate -->
  <ellipse cx="26" cy="36.5" rx="6" ry="10" fill="#6B8BA3" stroke="#4A6A7F" stroke-width="1.5" opacity="0.8"/>
  <path d="M 26 28 Q 28 36.5, 26 45" stroke="#4A6A7F" stroke-width="2.5" fill="none"/>
  <path d="M 29 31 Q 30 36.5, 29 42" stroke="#5A7A8F" stroke-width="1.5" fill="none" opacity="0.6"/>

  <!-- Large eye (characteristic of baitfish) -->
  <circle cx="20" cy="33" r="6.5" fill="#F8F4EE"/>
  <circle cx="21" cy="32" r="5" fill="#1A1A1A"/>
  <circle cx="22.5" cy="31" r="2" fill="#FFFFFF"/>

  <!-- Dorsal fin -->
  <path d="M 95 22 L 90 20 L 93 33 L 98 34 L 103 34 L 108 34 L 111 33 L 114 20 L 109 22 Z" fill="#5A7A8F" stroke="#4A6A7F" stroke-width="1" opacity="0.85"/>

  <!-- Pectoral fin -->
  <path d="M 30 42 L 27 52 L 32 56 L 38 55 L 36 44 Z" fill="#8AA8BC" opacity="0.75" stroke="#5A7A8F" stroke-width="0.8"/>

  <!-- Pelvic fin -->
  <path d="M 85 42 L 82 50 L 86 54 L 90 53 L 89 43 Z" fill="#8AA8BC" opacity="0.75" stroke="#5A7A8F" stroke-width="0.8"/>

  <!-- Anal fin -->
  <path d="M 130 41 L 127 43 L 129 50 L 137 51 L 143 50 L 145 44 L 142 41 Z" fill="#8AA8BC" opacity="0.75" stroke="#5A7A8F" stroke-width="0.8"/>

  <!-- Forked tail -->
  <path d="M 180 33 Q 192 27, 200 23 L 210 26 L 214 33 L 211 36 L 202 39 L 180 39 L 202 39 L 211 42 L 214 47 L 210 54 L 200 57 Q 192 53, 180 47 Z" fill="#6B8BA3" stroke="#4A6A7F" stroke-width="1.5" opacity="0.9"/>

  <!-- Scale pattern - organized rows -->
  <g opacity="0.35">
    <circle cx="42" cy="36" r="2.2" fill="none" stroke="#4A6A7F" stroke-width="0.7"/>
    <circle cx="48" cy="37" r="2.2" fill="none" stroke="#4A6A7F" stroke-width="0.7"/>
    <circle cx="54" cy="36" r="2.2" fill="none" stroke="#4A6A7F" stroke-width="0.7"/>
    <circle cx="60" cy="37" r="2.2" fill="none" stroke="#4A6A7F" stroke-width="0.7"/>
    <circle cx="66" cy="36" r="2.2" fill="none" stroke="#4A6A7F" stroke-width="0.7"/>
    <circle cx="72" cy="37" r="2.2" fill="none" stroke="#4A6A7F" stroke-width="0.7"/>
    <circle cx="78" cy="36" r="2.2" fill="none" stroke="#4A6A7F" stroke-width="0.7"/>
    <circle cx="84" cy="37" r="2.2" fill="none" stroke="#4A6A7F" stroke-width="0.7"/>
    <circle cx="90" cy="36" r="2.2" fill="none" stroke="#4A6A7F" stroke-width="0.7"/>
    <circle cx="96" cy="37" r="2.2" fill="none" stroke="#4A6A7F" stroke-width="0.7"/>
    <circle cx="102" cy="36" r="2.2" fill="none" stroke="#4A6A7F" stroke-width="0.7"/>
    <circle cx="108" cy="37" r="2.2" fill="none" stroke="#4A6A7F" stroke-width="0.7"/>
    <circle cx="114" cy="36" r="2.2" fill="none" stroke="#4A6A7F" stroke-width="0.7"/>
    <circle cx="120" cy="37" r="2.2" fill="none" stroke="#4A6A7F" stroke-width="0.7"/>
    <circle cx="126" cy="36" r="2.2" fill="none" stroke="#4A6A7F" stroke-width="0.7"/>
    <circle cx="132" cy="37" r="2.2" fill="none" stroke="#4A6A7F" stroke-width="0.7"/>
    <circle cx="138" cy="36" r="2.2" fill="none" stroke="#4A6A7F" stroke-width="0.7"/>
    <circle cx="144" cy="37" r="2.2" fill="none" stroke="#4A6A7F" stroke-width="0.7"/>
    <circle cx="150" cy="36" r="2.2" fill="none" stroke="#4A6A7F" stroke-width="0.7"/>
    <circle cx="156" cy="37" r="2.2" fill="none" stroke="#4A6A7F" stroke-width="0.7"/>

    <circle cx="45" cy="40" r="2.2" fill="none" stroke="#4A6A7F" stroke-width="0.7"/>
    <circle cx="51" cy="41" r="2.2" fill="none" stroke="#4A6A7F" stroke-width="0.7"/>
    <circle cx="57" cy="40" r="2.2" fill="none" stroke="#4A6A7F" stroke-width="0.7"/>
    <circle cx="63" cy="41" r="2.2" fill="none" stroke="#4A6A7F" stroke-width="0.7"/>
    <circle cx="69" cy="40" r="2.2" fill="none" stroke="#4A6A7F" stroke-width="0.7"/>
    <circle cx="75" cy="41" r="2.2" fill="none" stroke="#4A6A7F" stroke-width="0.7"/>
    <circle cx="81" cy="40" r="2.2" fill="none" stroke="#4A6A7F" stroke-width="0.7"/>
    <circle cx="87" cy="41" r="2.2" fill="none" stroke="#4A6A7F" stroke-width="0.7"/>
    <circle cx="93" cy="40" r="2.2" fill="none" stroke="#4A6A7F" stroke-width="0.7"/>
    <circle cx="99" cy="41" r="2.2" fill="none" stroke="#4A6A7F" stroke-width="0.7"/>
    <circle cx="105" cy="40" r="2.2" fill="none" stroke="#4A6A7F" stroke-width="0.7"/>
    <circle cx="111" cy="41" r="2.2" fill="none" stroke="#4A6A7F" stroke-width="0.7"/>
    <circle cx="117" cy="40" r="2.2" fill="none" stroke="#4A6A7F" stroke-width="0.7"/>
    <circle cx="123" cy="41" r="2.2" fill="none" stroke="#4A6A7F" stroke-width="0.7"/>
    <circle cx="129" cy="40" r="2.2" fill="none" stroke="#4A6A7F" stroke-width="0.7"/>
    <circle cx="135" cy="41" r="2.2" fill="none" stroke="#4A6A7F" stroke-width="0.7"/>
    <circle cx="141" cy="40" r="2.2" fill="none" stroke="#4A6A7F" stroke-width="0.7"/>
    <circle cx="147" cy="41" r="2.2" fill="none" stroke="#4A6A7F" stroke-width="0.7"/>
    <circle cx="153" cy="40" r="2.2" fill="none" stroke="#4A6A7F" stroke-width="0.7"/>
  </g>

  <!-- Dark dorsal stripe -->
  <path d="M 30 30 Q 80 27, 140 28 Q 170 29, 185 32" stroke="#3A5A6F" stroke-width="3.5" fill="none" opacity="0.6" stroke-linecap="round"/>

  <!-- Iridescent spots -->
  <g opacity="0.65">
    <circle cx="55" cy="32" r="1.5" fill="#9ABBD4"/>
    <circle cx="70" cy="30" r="1.5" fill="#9ABBD4"/>
    <circle cx="85" cy="31" r="1.5" fill="#9ABBD4"/>
    <circle cx="100" cy="30" r="1.5" fill="#9ABBD4"/>
    <circle cx="115" cy="31" r="1.5" fill="#9ABBD4"/>
    <circle cx="130" cy="30" r="1.5" fill="#9ABBD4"/>
    <circle cx="145" cy="31" r="1.5" fill="#9ABBD4"/>
    <circle cx="160" cy="32" r="1.5" fill="#9ABBD4"/>
  </g>
</svg>
