<svg xmlns="http://www.w3.org/2000/svg" viewBox="0 0 200 80" width="200" height="80">
  <!-- Alewife (Baitfish) Vector Art -->

  <!-- Main body - sleek and streamlined -->
  <ellipse cx="100" cy="40" rx="85" ry="22" fill="#6B8BA3" opacity="0.9"/>

  <!-- Silvery belly and sides -->
  <ellipse cx="100" cy="48" rx="80" ry="15" fill="#D8E4ED" opacity="0.95"/>

  <!-- Extra silver shimmer effect -->
  <ellipse cx="100" cy="50" rx="75" ry="10" fill="#F0F5F9" opacity="0.85"/>

  <!-- Head -->
  <ellipse cx="25" cy="40" rx="20" ry="20" fill="#5A7A8F"/>

  <!-- Gill cover -->
  <path d="M 30 35 Q 35 40, 30 45" stroke="#4A6A7F" stroke-width="1.5" fill="none" opacity="0.7"/>

  <!-- Eye (large and prominent) -->
  <circle cx="22" cy="36" r="6" fill="#F5F0E8"/>
  <circle cx="23" cy="35" r="4.5" fill="#1A1A1A"/>
  <circle cx="24" cy="34" r="1.5" fill="#FFFFFF"/>

  <!-- Mouth (small) -->
  <path d="M 8 40 Q 10 38, 12 40" stroke="#3A5A6F" stroke-width="1" fill="none"/>

  <!-- Dorsal fin (small) -->
  <path d="M 85 22 Q 95 15, 105 22 L 102 28 Q 95 25, 88 27 Z" fill="#5A7A8F" opacity="0.8"/>

  <!-- Pectoral fin (small) -->
  <path d="M 35 48 Q 30 58, 38 60 Q 38 54, 36 49 Z" fill="#8AA8BC" opacity="0.7"/>

  <!-- Pelvic fin (small) -->
  <path d="M 75 58 Q 72 64, 78 66 Q 78 61, 76 59 Z" fill="#8AA8BC" opacity="0.7"/>

  <!-- Anal fin -->
  <path d="M 115 56 Q 125 58, 132 55 L 128 52 Q 122 54, 118 53 Z" fill="#8AA8BC" opacity="0.7"/>

  <!-- Tail (forked) -->
  <path d="M 180 30 Q 195 22, 198 33 Q 194 37, 186 40 L 180 40 L 186 43 Q 194 46, 198 50 Q 195 61, 180 53 Q 183 40, 180 30 Z" fill="#6B8BA3" opacity="0.85"/>

  <!-- Dark back stripe (characteristic of alewife) -->
  <path d="M 35 32 Q 80 28, 130 30 Q 160 31, 180 35" stroke="#3A5A6F" stroke-width="3" fill="none" opacity="0.6"/>

  <!-- Subtle iridescent spots on back -->
  <circle cx="60" cy="32" r="1.5" fill="#8AAAC4" opacity="0.6"/>
  <circle cx="75" cy="30" r="1.5" fill="#8AAAC4" opacity="0.6"/>
  <circle cx="90" cy="31" r="1.5" fill="#8AAAC4" opacity="0.6"/>
  <circle cx="105" cy="29" r="1.5" fill="#8AAAC4" opacity="0.6"/>
  <circle cx="120" cy="30" r="1.5" fill="#8AAAC4" opacity="0.6"/>
  <circle cx="135" cy="32" r="1.5" fill="#8AAAC4" opacity="0.6"/>
  <circle cx="150" cy="33" r="1.5" fill="#8AAAC4" opacity="0.6"/>

  <!-- Lateral line scales effect -->
  <path d="M 40 42 L 45 42 M 48 42 L 53 42 M 56 42 L 61 42 M 64 42 L 69 42 M 72 42 L 77 42 M 80 42 L 85 42 M 88 42 L 93 42 M 96 42 L 101 42 M 104 42 L 109 42 M 112 42 L 117 42 M 120 42 L 125 42 M 128 42 L 133 42 M 136 42 L 141 42 M 144 42 L 149 42" stroke="#B8C8D5" stroke-width="0.5" opacity="0.5"/>

  <!-- Body outline for definition -->
  <ellipse cx="100" cy="40" rx="85" ry="22" fill="none" stroke="#4A6A7F" stroke-width="1" opacity="0.4"/>
</svg>
