<svg xmlns="http://www.w3.org/2000/svg" viewBox="0 0 450 140" width="450" height="140">
  <!-- Lake Trout - Built step by step following anatomical diagram -->

  <defs>
    <!-- Body gradient - gray-green top to bronze-green bottom -->
    <linearGradient id="bodyGrad" x1="0%" y1="0%" x2="0%" y2="100%">
      <stop offset="0%" style="stop-color:#5A6A5A;stop-opacity:1" />
      <stop offset="30%" style="stop-color:#7A8A7A;stop-opacity:1" />
      <stop offset="70%" style="stop-color:#9AAA8A;stop-opacity:1" />
      <stop offset="100%" style="stop-color:#8A9A7A;stop-opacity:1" />
    </linearGradient>

    <!-- Red-orange fin gradient -->
    <linearGradient id="finGrad" x1="0%" y1="0%" x2="0%" y2="100%">
      <stop offset="0%" style="stop-color:#E86040;stop-opacity:1" />
      <stop offset="50%" style="stop-color:#D85030;stop-opacity:1" />
      <stop offset="100%" style="stop-color:#C84020;stop-opacity:0.95" />
    </linearGradient>
  </defs>

  <!-- STEP 1: Body with CORRECT proportions (not narrow!) -->
  <!-- Total length ~360px, max depth ~90px (ratio of 4:1) -->
  <path d="M 40 70
           L 30 68
           Q 25 70, 30 72
           L 40 70
           C 60 68, 80 65, 110 63
           C 140 62, 170 62, 220 62
           C 270 62, 320 63, 350 65
           L 380 68
           Q 390 70, 380 72
           L 350 75
           C 320 77, 270 78, 220 78
           C 170 78, 140 78, 110 77
           C 80 75, 60 72, 40 70 Z"
        fill="url(#bodyGrad)" stroke="#3A4A3A" stroke-width="2"/>

  <!-- Dark olive-green back -->
  <path d="M 40 70 C 80 65, 170 62, 350 65
           Q 350 66, 340 67 C 270 65, 170 65, 110 66 C 80 67, 50 68, 40 70 Z"
        fill="#4A5A4A" opacity="0.8"/>

  <!-- STEP 2: Head features -->

  <!-- Gill Cover (Cheek) -->
  <ellipse cx="45" cy="70" rx="18" ry="22" fill="#6A7A6A" stroke="#3A4A3A" stroke-width="1.5"/>
  <path d="M 45 52 Q 48 70, 45 88" stroke="#3A4A3A" stroke-width="2" fill="none"/>

  <!-- Eye -->
  <circle cx="38" cy="65" r="6" fill="#E8E0D0"/>
  <circle cx="39" cy="64" r="4" fill="#1A1A1A"/>
  <circle cx="40" cy="63" r="1.5" fill="#FFFFFF"/>

  <!-- Mouth -->
  <path d="M 25 68 Q 22 70, 25 72" stroke="#2A2A2A" stroke-width="3" fill="none" stroke-linecap="round"/>
  <ellipse cx="24" cy="70" rx="2" ry="3" fill="#1A1A1A"/>

  <!-- Maxilla (upper jaw line) -->
  <path d="M 25 68 L 32 66" stroke="#3A3A3A" stroke-width="1.5" fill="none"/>

  <!-- Lateral Line -->
  <path d="M 60 70 Q 150 69, 250 70 Q 320 71, 370 72"
        stroke="#5A6A5A" stroke-width="1" fill="none" opacity="0.6" stroke-dasharray="4,2"/>

  <!-- STEP 3: PECTORAL FIN (behind gill) - RED-ORANGE -->
  <path d="M 62 75 L 58 88 L 64 95 L 72 96 L 76 90 L 74 78 Z"
        fill="url(#finGrad)" stroke="#B83010" stroke-width="1.5" opacity="0.95"/>
  <!-- Fin rays -->
  <line x1="65" y1="80" x2="61" y2="90" stroke="#A82818" stroke-width="0.8" opacity="0.5"/>
  <line x1="69" y1="79" x2="66" y2="94" stroke="#A82818" stroke-width="0.8" opacity="0.5"/>
  <line x1="73" y1="80" x2="71" y2="95" stroke="#A82818" stroke-width="0.8" opacity="0.5"/>

  <!-- STEP 4: PELVIC/VENTRAL FIN - RED-ORANGE -->
  <path d="M 160 77 L 155 88 L 160 94 L 168 93 L 171 87 L 169 79 Z"
        fill="url(#finGrad)" stroke="#B83010" stroke-width="1.5" opacity="0.95"/>
  <!-- Fin rays -->
  <line x1="162" y1="81" x2="158" y2="90" stroke="#A82818" stroke-width="0.8" opacity="0.5"/>
  <line x1="166" y1="80" x2="163" y2="92" stroke="#A82818" stroke-width="0.8" opacity="0.5"/>

  <!-- STEP 5: FIRST DORSAL FIN - RED-ORANGE with rays -->
  <path d="M 130 45 L 125 38 L 128 62 L 135 64 L 142 64 L 149 64 L 156 64 L 163 64 L 166 62 L 168 38 L 163 45 Z"
        fill="url(#finGrad)" stroke="#B83010" stroke-width="1.5" opacity="0.95"/>
  <!-- Prominent fin rays (hatching) -->
  <line x1="132" y1="47" x2="132" y2="63" stroke="#A82818" stroke-width="1" opacity="0.6"/>
  <line x1="142" y1="43" x2="142" y2="64" stroke="#A82818" stroke-width="1" opacity="0.6"/>
  <line x1="149" y1="42" x2="149" y2="64" stroke="#A82818" stroke-width="1" opacity="0.6"/>
  <line x1="156" y1="43" x2="156" y2="64" stroke="#A82818" stroke-width="1" opacity="0.6"/>
  <line x1="163" y1="46" x2="163" y2="63" stroke="#A82818" stroke-width="1" opacity="0.6"/>

  <!-- STEP 6: ADIPOSE FIN (Second Dorsal) - small, fleshy, no rays -->
  <ellipse cx="310" cy="58" rx="10" ry="7" fill="#8A7A6A" stroke="#3A4A3A" stroke-width="1.2" opacity="0.9"/>

  <!-- STEP 7: ANAL FIN - RED-ORANGE -->
  <path d="M 270 76 L 265 80 L 267 88 L 275 90 L 283 89 L 288 84 L 289 78 L 284 76 Z"
        fill="url(#finGrad)" stroke="#B83010" stroke-width="1.5" opacity="0.95"/>
  <!-- Fin rays -->
  <line x1="273" y1="78" x2="273" y2="89" stroke="#A82818" stroke-width="0.8" opacity="0.5"/>
  <line x1="279" y1="78" x2="280" y2="89" stroke="#A82818" stroke-width="0.8" opacity="0.5"/>
  <line x1="285" y1="78" x2="286" y2="86" stroke="#A82818" stroke-width="0.8" opacity="0.5"/>

  <!-- STEP 8: CAUDAL FIN (TAIL) - DEEPLY FORKED, RED-ORANGE with WHITE EDGES -->
  <!-- Upper lobe -->
  <path d="M 380 68 Q 405 58, 418 52 L 425 55 L 430 63 L 426 68 L 410 74 L 390 70 Z"
        fill="url(#finGrad)" stroke="#B83010" stroke-width="1.5"/>
  <!-- Lower lobe -->
  <path d="M 380 72 Q 405 82, 418 88 L 425 85 L 430 77 L 426 68 L 410 74 L 390 70 Z"
        fill="url(#finGrad)" stroke="#B83010" stroke-width="1.5"/>

  <!-- WHITE EDGES on tail -->
  <path d="M 418 52 L 425 55 L 430 63" stroke="#FFFFFF" stroke-width="2" fill="none" opacity="0.9" stroke-linecap="round"/>
  <path d="M 418 88 L 425 85 L 430 77" stroke="#FFFFFF" stroke-width="2" fill="none" opacity="0.9" stroke-linecap="round"/>

  <!-- Tail fin rays -->
  <line x1="385" y1="69" x2="420" y2="56" stroke="#C84828" stroke-width="0.8" opacity="0.5"/>
  <line x1="390" y1="70" x2="426" y2="60" stroke="#C84828" stroke-width="0.8" opacity="0.5"/>
  <line x1="385" y1="71" x2="420" y2="84" stroke="#C84828" stroke-width="0.8" opacity="0.5"/>
  <line x1="390" y1="70" x2="426" y2="80" stroke="#C84828" stroke-width="0.8" opacity="0.5"/>

  <!-- STEP 9: WHITE SPOTS scattered across ENTIRE body -->
  <g opacity="0.85">
    <!-- Upper area spots -->
    <circle cx="70" cy="66" r="2.5" fill="#E8E8E8"/>
    <circle cx="90" cy="64" r="3" fill="#E8E8E8"/>
    <circle cx="110" cy="67" r="2.5" fill="#E8E8E8"/>
    <circle cx="130" cy="65" r="3" fill="#E8E8E8"/>
    <circle cx="150" cy="68" r="2.5" fill="#E8E8E8"/>
    <circle cx="170" cy="66" r="3" fill="#E8E8E8"/>
    <circle cx="190" cy="69" r="2.5" fill="#E8E8E8"/>
    <circle cx="210" cy="67" r="3" fill="#E8E8E8"/>
    <circle cx="230" cy="70" r="2.5" fill="#E8E8E8"/>
    <circle cx="250" cy="68" r="3" fill="#E8E8E8"/>
    <circle cx="270" cy="71" r="2.5" fill="#E8E8E8"/>
    <circle cx="290" cy="69" r="3" fill="#E8E8E8"/>
    <circle cx="310" cy="72" r="2.5" fill="#E8E8E8"/>
    <circle cx="330" cy="70" r="3" fill="#E8E8E8"/>
    <circle cx="350" cy="73" r="2.5" fill="#E8E8E8"/>

    <!-- Mid-body spots -->
    <circle cx="80" cy="70" r="2.8" fill="#E8E8E8"/>
    <circle cx="100" cy="70" r="2.5" fill="#E8E8E8"/>
    <circle cx="120" cy="70" r="3" fill="#E8E8E8"/>
    <circle cx="140" cy="70" r="2.8" fill="#E8E8E8"/>
    <circle cx="160" cy="70" r="2.5" fill="#E8E8E8"/>
    <circle cx="180" cy="70" r="3" fill="#E8E8E8"/>
    <circle cx="200" cy="70" r="2.8" fill="#E8E8E8"/>
    <circle cx="220" cy="70" r="2.5" fill="#E8E8E8"/>
    <circle cx="240" cy="70" r="3" fill="#E8E8E8"/>
    <circle cx="260" cy="70" r="2.8" fill="#E8E8E8"/>
    <circle cx="280" cy="70" r="2.5" fill="#E8E8E8"/>
    <circle cx="300" cy="70" r="3" fill="#E8E8E8"/>
    <circle cx="320" cy="70" r="2.8" fill="#E8E8E8"/>
    <circle cx="340" cy="70" r="2.5" fill="#E8E8E8"/>

    <!-- Lower area spots -->
    <circle cx="75" cy="73" r="2.5" fill="#E8E8E8"/>
    <circle cx="95" cy="75" r="2.8" fill="#E8E8E8"/>
    <circle cx="115" cy="74" r="2.5" fill="#E8E8E8"/>
    <circle cx="135" cy="76" r="3" fill="#E8E8E8"/>
    <circle cx="155" cy="75" r="2.5" fill="#E8E8E8"/>
    <circle cx="175" cy="77" r="2.8" fill="#E8E8E8"/>
    <circle cx="195" cy="76" r="2.5" fill="#E8E8E8"/>
    <circle cx="215" cy="78" r="3" fill="#E8E8E8"/>
    <circle cx="235" cy="77" r="2.5" fill="#E8E8E8"/>
    <circle cx="255" cy="79" r="2.8" fill="#E8E8E8"/>
    <circle cx="275" cy="78" r="2.5" fill="#E8E8E8"/>
    <circle cx="295" cy="80" r="3" fill="#E8E8E8"/>
    <circle cx="315" cy="79" r="2.5" fill="#E8E8E8"/>
    <circle cx="335" cy="81" r="2.8" fill="#E8E8E8"/>
  </g>
</svg>
