<svg xmlns="http://www.w3.org/2000/svg" viewBox="0 0 460 170" width="460" height="170">
  <!-- Lake Trout Option 3 - Highly detailed realistic -->

  <defs>
    <!-- Complex body gradient -->
    <linearGradient id="troutBodyDetailed" x1="0%" y1="0%" x2="0%" y2="100%">
      <stop offset="0%" style="stop-color:#A89878;stop-opacity:1" />
      <stop offset="20%" style="stop-color:#B8A888;stop-opacity:1" />
      <stop offset="40%" style="stop-color:#D0C0A0;stop-opacity:1" />
      <stop offset="60%" style="stop-color:#E8D8C0;stop-opacity:1" />
      <stop offset="80%" style="stop-color:#F8F0E0;stop-opacity:1" />
      <stop offset="100%" style="stop-color:#FFFEF8;stop-opacity:1" />
    </linearGradient>

    <!-- Yellow-orange fin gradient -->
    <linearGradient id="finDetailed" x1="0%" y1="0%" x2="100%" y2="100%">
      <stop offset="0%" style="stop-color:#F8E080;stop-opacity:1" />
      <stop offset="50%" style="stop-color:#F0C858;stop-opacity:1" />
      <stop offset="100%" style="stop-color:#D8A838;stop-opacity:0.95" />
    </linearGradient>

    <!-- Tail gradient -->
    <radialGradient id="tailGrad">
      <stop offset="0%" style="stop-color:#F8D068;stop-opacity:1" />
      <stop offset="60%" style="stop-color:#E8B848;stop-opacity:0.98" />
      <stop offset="100%" style="stop-color:#C89028;stop-opacity:0.92" />
    </radialGradient>
  </defs>

  <!-- Shadow -->
  <ellipse cx="230" cy="105" rx="170" ry="22" fill="#7A6A5A" opacity="0.2"/>

  <!-- Body outline -->
  <path d="M 45 85 Q 40 81, 37 85 Q 40 89, 45 88
           C 75 90, 115 93, 175 94
           C 255 95, 335 95, 390 93
           C 415 92, 435 91, 440 85
           Q 442 82, 440 79
           C 435 79, 415 78, 390 77
           C 335 75, 255 75, 175 76
           C 115 77, 75 80, 45 82 Z"
        fill="url(#troutBodyDetailed)" stroke="#907868" stroke-width="2.8"/>

  <!-- Olive-tan back layer -->
  <path d="M 45 82 C 115 77, 255 75, 390 77 Q 435 78, 440 79
           Q 440 80, 435 81 C 415 81, 390 81, 335 80
           C 255 79, 175 79, 115 79 C 75 79, 60 80, 45 82 Z"
        fill="#B09870" opacity="0.8"/>

  <!-- Mid-tone layer -->
  <path d="M 50 85 C 120 81, 260 80, 395 82
           Q 400 82, 395 83 C 370 83, 335 83, 255 83
           C 175 83, 115 83, 80 83 C 65 83, 55 84, 50 85 Z"
        fill="#D8C8A0" opacity="0.85"/>

  <!-- Bright belly -->
  <path d="M 55 85 C 125 87, 270 88, 405 86
           Q 410 86, 405 85.5 C 380 86, 335 86, 255 86
           C 175 86, 115 86, 80 86 C 65 86, 60 85.5, 55 85 Z"
        fill="#FFFEF5" opacity="0.95"/>

  <!-- Head - detailed -->
  <path d="M 45 82 L 38 79 L 30 77 L 22 78 L 17 81 L 14 84 L 13 85 L 13 87 L 14 91 L 17 95 L 22 98 L 30 99 L 38 97 L 45 88 Z"
        fill="#C8B898" stroke="#907868" stroke-width="2.3"/>

  <!-- Snout -->
  <path d="M 30 77 L 22 78 L 17 81 L 14 84 L 13 85 L 13 87 L 14 91 L 17 95 L 22 98 L 30 99
           L 29 95 L 27 91 L 27 85 L 29 81 Z"
        fill="#B0A080"/>

  <!-- Nostril -->
  <ellipse cx="27" cy="82" rx="1.5" ry="1" fill="#706050" opacity="0.7"/>

  <!-- Mouth - detailed -->
  <path d="M 17 81 L 13 83 L 11 85 L 11 87 L 13 91 L 17 93"
        stroke="#605048" stroke-width="5" fill="none" stroke-linecap="round"/>
  <ellipse cx="12" cy="87" rx="3.5" ry="6" fill="#504038" opacity="0.9"/>
  <path d="M 17 83 L 20 87 L 17 91" stroke="#807068" stroke-width="2.5" fill="none"/>

  <!-- Eye - detailed -->
  <ellipse cx="34" cy="82" rx="7.5" ry="7" fill="#ECE2D0"/>
  <circle cx="35" cy="81" r="5.5" fill="#2A2018"/>
  <circle cx="36.5" cy="79.5" r="2.2" fill="#FFFFFF" opacity="0.98"/>
  <ellipse cx="35" cy="82.5" rx="2" ry="1.5" fill="#505040" opacity="0.35"/>
  <path d="M 28 82 Q 34 78, 40 82" stroke="#907868" stroke-width="1.3" fill="none" opacity="0.5"/>
  <path d="M 28.5 83 Q 34 86, 39.5 83" stroke="#907868" stroke-width="1.1" fill="none" opacity="0.4"/>

  <!-- Gill plate - highly detailed -->
  <path d="M 42 80 Q 52 82, 55 85 Q 52 90, 42 92
           L 40 90 Q 49 87, 52 85 Q 49 83, 40 80 Z"
        fill="#D0C0A0" stroke="#907868" stroke-width="2.3"/>
  <path d="M 42 81 Q 45 85, 42 89" stroke="#706050" stroke-width="3.8" fill="none" opacity="0.75"/>
  <path d="M 45 81.5 Q 47 85, 45 88.5" stroke="#807060" stroke-width="3" fill="none" opacity="0.65"/>
  <path d="M 48 82 Q 49 85, 48 88" stroke="#908070" stroke-width="2.2" fill="none" opacity="0.55"/>
  <path d="M 50 82.5 Q 51 85, 50 87.5" stroke="#A09080" stroke-width="1.5" fill="none" opacity="0.45"/>

  <!-- Forked tail - YELLOW-ORANGE with detail -->
  <path d="M 435 79 Q 455 71, 448 58
           L 443 71 L 435 82 L 440 85 Z"
        fill="url(#tailGrad)" stroke="#B07820" stroke-width="2.5"/>
  <path d="M 435 91 Q 455 99, 448 112
           L 443 97 L 435 82 L 440 85 Z"
        fill="url(#tailGrad)" stroke="#B07820" stroke-width="2.5"/>
  <!-- Tail rays -->
  <line x1="438" y1="82" x2="446" y2="65" stroke="#C89830" stroke-width="1.3" opacity="0.7"/>
  <line x1="441" y1="84" x2="448" y2="62" stroke="#C89830" stroke-width="1.1" opacity="0.6"/>
  <line x1="438" y1="88" x2="446" y2="105" stroke="#C89830" stroke-width="1.3" opacity="0.7"/>
  <line x1="441" y1="86" x2="448" y2="108" stroke="#C89830" stroke-width="1.1" opacity="0.6"/>
  <!-- Tail highlights -->
  <path d="M 447 60 L 443 71 L 447 110" stroke="#F8E090" stroke-width="2" fill="none" opacity="0.7"/>

  <!-- Dorsal fin - YELLOW-ORANGE with detail -->
  <path d="M 210 60 L 204 55 L 206 78 L 214 80 L 222 80 L 230 80 L 238 80 L 246 80 L 249 78 L 251 55 L 245 60 Z"
        fill="url(#finDetailed)" stroke="#B07820" stroke-width="2"/>
  <line x1="213" y1="62" x2="213" y2="79" stroke="#C09830" stroke-width="1.2" opacity="0.6"/>
  <line x1="222" y1="60" x2="222" y2="80" stroke="#C09830" stroke-width="1.2" opacity="0.6"/>
  <line x1="230" y1="59" x2="230" y2="80" stroke="#C09830" stroke-width="1.2" opacity="0.6"/>
  <line x1="238" y1="60" x2="238" y2="80" stroke="#C09830" stroke-width="1.2" opacity="0.6"/>
  <line x1="245" y1="62" x2="246" y2="79" stroke="#C09830" stroke-width="1.2" opacity="0.6"/>
  <path d="M 206 78 Q 228 76, 249 78" stroke="#E8D070" stroke-width="1" fill="none" opacity="0.5"/>

  <!-- Adipose fin - YELLOW -->
  <ellipse cx="370" cy="70" rx="11" ry="9" fill="#E0B838" opacity="0.92" stroke="#B87820" stroke-width="1.6"/>
  <ellipse cx="368" cy="69" rx="5" ry="4" fill="#F8D868" opacity="0.6"/>

  <!-- Pectoral fin - YELLOW-ORANGE -->
  <path d="M 55 90 L 49 108 L 55 115 L 66 118 L 73 114 L 71 97 Z"
        fill="url(#finDetailed)" opacity="0.93" stroke="#B07820" stroke-width="1.9"/>
  <line x1="59" y1="96" x2="53" y2="110" stroke="#C09830" stroke-width="1" opacity="0.6"/>
  <line x1="63" y1="95" x2="58" y2="115" stroke="#C09830" stroke-width="1" opacity="0.6"/>
  <line x1="67" y1="94" x2="63" y2="117" stroke="#C09830" stroke-width="1" opacity="0.6"/>
  <line x1="71" y1="95" x2="68" y2="117" stroke="#C09830" stroke-width="1" opacity="0.6"/>

  <!-- Pelvic fins - YELLOW-ORANGE -->
  <path d="M 240 96 L 233 114 L 240 121 L 250 120 L 255 114 L 253 101 Z"
        fill="url(#finDetailed)" opacity="0.93" stroke="#B07820" stroke-width="1.9"/>
  <line x1="243" y1="101" x2="237" y2="116" stroke="#C09830" stroke-width="1" opacity="0.6"/>
  <line x1="247" y1="100" x2="242" y2="120" stroke="#C09830" stroke-width="1" opacity="0.6"/>

  <!-- Anal fin - YELLOW-ORANGE -->
  <path d="M 335 95 L 328 101 L 330 113 L 343 116 L 356 115 L 365 109 L 368 101 L 359 95 Z"
        fill="url(#finDetailed)" opacity="0.93" stroke="#B07820" stroke-width="1.9"/>
  <line x1="342" y1="98" x2="342" y2="115" stroke="#C09830" stroke-width="1" opacity="0.6"/>
  <line x1="352" y1="98" x2="353" y2="115" stroke="#C09830" stroke-width="1" opacity="0.6"/>
  <line x1="361" y1="98" x2="362" y2="111" stroke="#C09830" stroke-width="1" opacity="0.6"/>

  <!-- Light cream/white spots - realistic varied pattern -->
  <g opacity="0.92">
    <!-- Large irregular spots -->
    <ellipse cx="95" cy="80" rx="4.8" ry="4" fill="#FCF8E8" transform="rotate(-8 95 80)"/>
    <ellipse cx="125" cy="78" rx="5.2" ry="4.5" fill="#FCF8E8" transform="rotate(12 125 78)"/>
    <ellipse cx="155" cy="81" rx="4.5" ry="3.8" fill="#FCF8E8" transform="rotate(-5 155 81)"/>
    <ellipse cx="185" cy="79" rx="5" ry="4.2" fill="#FCF8E8" transform="rotate(18 185 79)"/>
    <ellipse cx="215" cy="82" rx="4.8" ry="4" fill="#FCF8E8" transform="rotate(-10 215 82)"/>
    <ellipse cx="245" cy="80" rx="5.2" ry="4.5" fill="#FCF8E8" transform="rotate(7 245 80)"/>
    <ellipse cx="275" cy="83" rx="4.5" ry="3.8" fill="#FCF8E8" transform="rotate(-12 275 83)"/>
    <ellipse cx="305" cy="81" rx="5" ry="4.2" fill="#FCF8E8" transform="rotate(15 305 81)"/>
    <ellipse cx="335" cy="84" rx="4.8" ry="4" fill="#FCF8E8" transform="rotate(-7 335 84)"/>
    <ellipse cx="365" cy="82" rx="5.2" ry="4.5" fill="#FCF8E8" transform="rotate(20 365 82)"/>

    <!-- Medium spots -->
    <circle cx="85" cy="87" r="3.8" fill="#FCF8E8"/>
    <circle cx="115" cy="89" r="4.2" fill="#FCF8E8"/>
    <circle cx="145" cy="88" r="3.5" fill="#FCF8E8"/>
    <circle cx="175" cy="90" r="4" fill="#FCF8E8"/>
    <circle cx="205" cy="89" r="3.7" fill="#FCF8E8"/>
    <circle cx="235" cy="91" r="4.2" fill="#FCF8E8"/>
    <circle cx="265" cy="90" r="3.8" fill="#FCF8E8"/>
    <circle cx="295" cy="92" r="4" fill="#FCF8E8"/>
    <circle cx="325" cy="91" r="3.9" fill="#FCF8E8"/>
    <circle cx="355" cy="93" r="4.2" fill="#FCF8E8"/>

    <!-- Small scattered spots -->
    <circle cx="100" cy="82" r="2.8" fill="#FCF8E8"/>
    <circle cx="130" cy="83" r="3.1" fill="#FCF8E8"/>
    <circle cx="160" cy="84" r="2.7" fill="#FCF8E8"/>
    <circle cx="190" cy="85" r="3" fill="#FCF8E8"/>
    <circle cx="220" cy="86" r="2.9" fill="#FCF8E8"/>
    <circle cx="250" cy="87" r="3.2" fill="#FCF8E8"/>
    <circle cx="280" cy="86" r="2.8" fill="#FCF8E8"/>
    <circle cx="310" cy="88" r="3.1" fill="#FCF8E8"/>
    <circle cx="340" cy="87" r="2.9" fill="#FCF8E8"/>
    <circle cx="370" cy="89" r="3" fill="#FCF8E8"/>

    <!-- Upper spots -->
    <circle cx="105" cy="79" r="3.2" fill="#FCF8E8"/>
    <circle cx="145" cy="77" r="3.5" fill="#FCF8E8"/>
    <circle cx="185" cy="76" r="3.1" fill="#FCF8E8"/>
    <circle cx="225" cy="78" r="3.4" fill="#FCF8E8"/>
    <circle cx="265" cy="77" r="3.3" fill="#FCF8E8"/>
    <circle cx="305" cy="79" r="3.6" fill="#FCF8E8"/>
    <circle cx="345" cy="78" r="3.2" fill="#FCF8E8"/>
  </g>

  <!-- Body shading -->
  <path d="M 45 88 C 115 91, 255 92, 390 91 Q 415 90.5, 435 90"
        stroke="#B0A080" stroke-width="1.8" fill="none" opacity="0.3"/>
</svg>
