<svg xmlns="http://www.w3.org/2000/svg" viewBox="0 0 420 150" width="420" height="150">
  <!-- Lake Trout Option B - Medium Detail with Gradients -->

  <defs>
    <!-- Body gradient - pale cream to tan -->
    <linearGradient id="bodyGrad" x1="0%" y1="0%" x2="0%" y2="100%">
      <stop offset="0%" style="stop-color:#C8B898;stop-opacity:1" />
      <stop offset="50%" style="stop-color:#E0D0B8;stop-opacity:1" />
      <stop offset="100%" style="stop-color:#F5F0E8;stop-opacity:1" />
    </linearGradient>

    <!-- Fin gradient - yellow to orange -->
    <linearGradient id="finGrad" x1="0%" y1="0%" x2="0%" y2="100%">
      <stop offset="0%" style="stop-color:#F8D070;stop-opacity:1" />
      <stop offset="100%" style="stop-color:#E8A840;stop-opacity:1" />
    </linearGradient>

    <!-- Tail gradient -->
    <radialGradient id="tailGrad" cx="50%" cy="50%">
      <stop offset="0%" style="stop-color:#F0C868;stop-opacity:1" />
      <stop offset="100%" style="stop-color:#D8A040;stop-opacity:0.95" />
    </radialGradient>
  </defs>

  <!-- Shadow for depth -->
  <ellipse cx="210" cy="90" rx="140" ry="20" fill="#8B7B6B" opacity="0.15"/>

  <!-- STEP 1: Body outline - smooth organic shape -->
  <path d="M 30 75 Q 25 70, 22 75 Q 25 80, 30 79
           C 50 81, 80 83, 120 84
           C 180 85, 240 85, 290 83
           C 320 82, 340 80, 345 75
           Q 348 72, 345 69
           C 340 70, 320 68, 290 67
           C 240 65, 180 65, 120 66
           C 80 67, 50 69, 30 71 Z"
        fill="url(#bodyGrad)" stroke="#A89478" stroke-width="2.2"/>

  <!-- Upper body darker olive-tan -->
  <path d="M 30 71 C 80 67, 180 65, 290 67 Q 340 68, 345 69
           Q 340 73, 290 74 C 240 73, 180 72, 120 72 C 80 72, 50 72, 30 73 Z"
        fill="#C8B490" opacity="0.85"/>

  <!-- Belly highlight - very white -->
  <path d="M 35 75 C 85 79, 185 80, 295 78 Q 300 77, 295 76
           C 240 77, 180 77, 120 77 C 80 77, 50 76, 35 75 Z"
        fill="#FFFDF8" opacity="0.9"/>

  <!-- Head shape -->
  <path d="M 30 71 L 24 67 L 16 64 L 10 66 L 6 70 L 5 75 L 6 80 L 10 84 L 16 86 L 24 83 L 30 79 Z"
        fill="#D8C8A8" stroke="#A89478" stroke-width="1.8"/>

  <!-- Snout detail -->
  <path d="M 16 64 L 10 66 L 6 70 L 5 75 L 6 80 L 10 84 L 16 86 L 15 81 L 14 75 L 15 69 Z"
        fill="#C0B090"/>

  <!-- Open mouth with detail -->
  <path d="M 6 70 L 3 72 L 1 75 L 3 78 L 6 80"
        stroke="#78625C" stroke-width="4" fill="none" stroke-linecap="round"/>
  <ellipse cx="2.5" cy="75" rx="3" ry="5" fill="#604C48" opacity="0.8"/>
  <!-- Mouth interior detail -->
  <path d="M 6 72 L 8 75 L 6 78" stroke="#906C68" stroke-width="1.5" fill="none"/>

  <!-- Eye with more detail -->
  <ellipse cx="20" cy="71" rx="6" ry="5.5" fill="#F0E8D8"/>
  <circle cx="21" cy="70" r="4.2" fill="#2C2418"/>
  <circle cx="22.5" cy="69" r="1.5" fill="#FFFFFF"/>
  <ellipse cx="22" cy="71.5" rx="1.2" ry="0.8" fill="#505050" opacity="0.4"/>

  <!-- Gill plate with structure -->
  <path d="M 27 69 Q 36 71, 38 75 Q 36 81, 27 83 L 25 81 Q 33 78, 35 75 Q 33 72, 25 69 Z"
        fill="#E0D0B8" stroke="#A89478" stroke-width="2" opacity="0.95"/>
  <path d="M 27 70 Q 30 75, 27 80" stroke="#90785C" stroke-width="3" fill="none" opacity="0.7"/>
  <path d="M 30 72 Q 32 75, 30 78" stroke="#A88868" stroke-width="1.8" fill="none" opacity="0.5"/>
  <path d="M 33 73 Q 34 75, 33 77" stroke="#B89878" stroke-width="1.2" fill="none" opacity="0.4"/>

  <!-- STEP 2: Tail - forked, yellow-orange -->
  <path d="M 340 69 Q 365 60, 380 53
           L 395 55 L 405 63 L 407 69
           L 398 76 L 370 82 L 345 75 Z"
        fill="url(#tailGrad)" stroke="#C08830" stroke-width="2"/>
  <path d="M 340 81 Q 365 90, 380 97
           L 395 95 L 405 87 L 407 81
           L 398 76 L 370 82 L 345 75 Z"
        fill="url(#tailGrad)" stroke="#C08830" stroke-width="2"/>

  <!-- Tail fin rays -->
  <line x1="348" y1="72" x2="385" y2="58" stroke="#D8A048" stroke-width="1" opacity="0.6"/>
  <line x1="355" y1="73" x2="395" y2="61" stroke="#D8A048" stroke-width="1" opacity="0.6"/>
  <line x1="348" y1="78" x2="385" y2="92" stroke="#D8A048" stroke-width="1" opacity="0.6"/>
  <line x1="355" y1="77" x2="395" y2="89" stroke="#D8A048" stroke-width="1" opacity="0.6"/>

  <!-- Tail highlights -->
  <path d="M 382 54 L 395 56 L 404 63" stroke="#F8E098" stroke-width="1.8" fill="none" opacity="0.7"/>
  <path d="M 382 96 L 395 94 L 404 87" stroke="#F8E098" stroke-width="1.8" fill="none" opacity="0.7"/>

  <!-- STEP 3: Fins - all yellow-orange -->

  <!-- Dorsal fin -->
  <path d="M 160 48 L 154 43 L 156 66 L 164 68 L 172 68 L 180 68 L 188 68 L 196 68 L 199 66 L 201 43 L 195 48 Z"
        fill="url(#finGrad)" stroke="#C08830" stroke-width="1.6" opacity="0.92"/>
  <!-- Dorsal fin rays -->
  <line x1="162" y1="50" x2="162" y2="67" stroke="#D09838" stroke-width="1" opacity="0.5"/>
  <line x1="172" y1="47" x2="172" y2="68" stroke="#D09838" stroke-width="1" opacity="0.5"/>
  <line x1="182" y1="47" x2="182" y2="68" stroke="#D09838" stroke-width="1" opacity="0.5"/>
  <line x1="192" y1="49" x2="192" y2="67" stroke="#D09838" stroke-width="1" opacity="0.5"/>

  <!-- Adipose fin -->
  <ellipse cx="300" cy="60" rx="9" ry="7" fill="#E8B848" opacity="0.88" stroke="#C89830" stroke-width="1.2"/>

  <!-- Pectoral fin -->
  <path d="M 35 81 L 30 100 L 36 107 L 46 110 L 52 106 L 50 87 Z"
        fill="url(#finGrad)" opacity="0.9" stroke="#C08830" stroke-width="1.5"/>
  <line x1="38" y1="86" x2="33" y2="103" stroke="#D8A848" stroke-width="0.9" opacity="0.5"/>
  <line x1="42" y1="85" x2="38" y2="107" stroke="#D8A848" stroke-width="0.9" opacity="0.5"/>
  <line x1="46" y1="85" x2="44" y2="109" stroke="#D8A848" stroke-width="0.9" opacity="0.5"/>

  <!-- Pelvic fins -->
  <path d="M 180 86 L 174 104 L 180 110 L 189 109 L 193 104 L 191 90 Z"
        fill="url(#finGrad)" opacity="0.9" stroke="#C08830" stroke-width="1.5"/>
  <line x1="182" y1="90" x2="178" y2="106" stroke="#D8A848" stroke-width="0.9" opacity="0.5"/>
  <line x1="186" y1="89" x2="183" y2="108" stroke="#D8A848" stroke-width="0.9" opacity="0.5"/>

  <!-- Anal fin -->
  <path d="M 265 85 L 259 90 L 261 100 L 272 103 L 284 102 L 294 98 L 297 90 L 290 85 Z"
        fill="url(#finGrad)" opacity="0.9" stroke="#C08830" stroke-width="1.5"/>
  <line x1="270" y1="87" x2="270" y2="102" stroke="#D8A848" stroke-width="0.9" opacity="0.5"/>
  <line x1="279" y1="87" x2="280" y2="102" stroke="#D8A848" stroke-width="0.9" opacity="0.5"/>
  <line x1="288" y1="87" x2="289" y2="100" stroke="#D8A848" stroke-width="0.9" opacity="0.5"/>

  <!-- STEP 4: Spots - light cream, varied sizes -->
  <g opacity="0.88">
    <!-- Larger spots -->
    <ellipse cx="75" cy="70" rx="3.5" ry="3" fill="#FBF5E8"/>
    <ellipse cx="95" cy="68" rx="4" ry="3.5" fill="#FBF5E8"/>
    <ellipse cx="115" cy="71" rx="3.2" ry="2.8" fill="#FBF5E8"/>
    <ellipse cx="135" cy="69" rx="3.8" ry="3.3" fill="#FBF5E8"/>
    <ellipse cx="155" cy="72" rx="3.5" ry="3" fill="#FBF5E8"/>
    <ellipse cx="175" cy="70" rx="4" ry="3.5" fill="#FBF5E8"/>
    <ellipse cx="195" cy="73" rx="3.2" ry="2.8" fill="#FBF5E8"/>
    <ellipse cx="215" cy="71" rx="3.8" ry="3.3" fill="#FBF5E8"/>
    <ellipse cx="235" cy="74" rx="3.5" ry="3" fill="#FBF5E8"/>
    <ellipse cx="255" cy="72" rx="4" ry="3.5" fill="#FBF5E8"/>
    <ellipse cx="275" cy="75" rx="3.2" ry="2.8" fill="#FBF5E8"/>
    <ellipse cx="295" cy="73" rx="3.8" ry="3.3" fill="#FBF5E8"/>
    <ellipse cx="315" cy="76" rx="3.5" ry="3" fill="#FBF5E8"/>

    <!-- Medium spots -->
    <circle cx="65" cy="75" r="2.8" fill="#FBF5E8"/>
    <circle cx="85" cy="77" r="3.2" fill="#FBF5E8"/>
    <circle cx="105" cy="76" r="2.5" fill="#FBF5E8"/>
    <circle cx="125" cy="78" r="3" fill="#FBF5E8"/>
    <circle cx="145" cy="77" r="2.8" fill="#FBF5E8"/>
    <circle cx="165" cy="79" r="3.2" fill="#FBF5E8"/>
    <circle cx="185" cy="78" r="2.5" fill="#FBF5E8"/>
    <circle cx="205" cy="80" r="3" fill="#FBF5E8"/>
    <circle cx="225" cy="79" r="2.8" fill="#FBF5E8"/>
    <circle cx="245" cy="81" r="3.2" fill="#FBF5E8"/>
    <circle cx="265" cy="80" r="2.5" fill="#FBF5E8"/>
    <circle cx="285" cy="82" r="3" fill="#FBF5E8"/>
    <circle cx="305" cy="81" r="2.8" fill="#FBF5E8"/>

    <!-- Upper spots -->
    <circle cx="80" cy="68" r="2.3" fill="#FBF5E8"/>
    <circle cx="110" cy="66" r="2.7" fill="#FBF5E8"/>
    <circle cx="140" cy="67" r="2.4" fill="#FBF5E8"/>
    <circle cx="170" cy="65" r="2.8" fill="#FBF5E8"/>
    <circle cx="200" cy="66" r="2.5" fill="#FBF5E8"/>
    <circle cx="230" cy="64" r="2.9" fill="#FBF5E8"/>
    <circle cx="260" cy="65" r="2.6" fill="#FBF5E8"/>
    <circle cx="290" cy="67" r="2.3" fill="#FBF5E8"/>
  </g>
</svg>
