<svg xmlns="http://www.w3.org/2000/svg" viewBox="0 0 340 110" width="340" height="110">
  <!-- Lake Trout Version 3 - More detailed realistic approach -->

  <!-- Shadow/depth on bottom -->
  <ellipse cx="170" cy="68" rx="125" ry="18" fill="#6A7A6D" opacity="0.25"/>

  <!-- Main body shape -->
  <path d="M 45 55 Q 100 45, 170 44 Q 240 45, 280 52 Q 295 55, 300 55 L 295 58 Q 280 62, 240 65 Q 170 68, 100 65 Q 60 62, 45 58 Z" fill="#8A9A8D"/>

  <!-- Lighter belly gradient -->
  <path d="M 55 55 Q 110 58, 180 59 Q 250 58, 290 55 Q 250 62, 180 63 Q 110 62, 55 58 Z" fill="#CBD7CF" opacity="0.95"/>

  <!-- Head and snout - angular and defined -->
  <path d="M 45 55 L 38 50 L 30 47 L 22 46 L 15 48 L 10 52 L 8 57 L 10 62 L 15 66 L 22 68 L 30 67 L 38 64 L 45 59 Z" fill="#7A8A7D"/>

  <!-- Snout tip -->
  <path d="M 22 46 L 15 48 L 10 52 L 8 57 L 10 62 L 15 66 L 22 68 L 20 62 L 18 57 L 20 52 Z" fill="#6A7A6D"/>

  <!-- Mouth - open with visible gap -->
  <path d="M 10 52 L 6 54 L 4 57 L 6 60 L 10 62" stroke="#3A4A3D" stroke-width="3" fill="none" stroke-linecap="round"/>
  <ellipse cx="5" cy="57" rx="3" ry="4" fill="#2A3A2D" opacity="0.8"/>

  <!-- Lower jaw detail -->
  <path d="M 10 62 L 12 64 L 18 65 L 20 63" stroke="#5A6A5D" stroke-width="1.5" fill="none"/>

  <!-- Eye with detail -->
  <ellipse cx="26" cy="52" rx="7" ry="6.5" fill="#F2E8D8"/>
  <circle cx="27" cy="51" r="4.5" fill="#1C1C1C"/>
  <circle cx="28.5" cy="50" r="1.8" fill="#FFFFFF"/>
  <path d="M 21 52 Q 26 48, 31 52" stroke="#5A6A5D" stroke-width="1" fill="none" opacity="0.4"/>

  <!-- Gill plate structure -->
  <path d="M 40 50 Q 50 52, 52 57 Q 50 64, 40 66 L 38 64 Q 47 61, 49 57 Q 47 53, 38 50 Z" fill="#8A9A8D" stroke="#5A6A5D" stroke-width="2" opacity="0.95"/>

  <!-- Gill opening with detail -->
  <path d="M 40 50 Q 42 57, 40 64" stroke="#3A4A3D" stroke-width="3" fill="none"/>
  <path d="M 43 53 Q 44 57, 43 61" stroke="#4A5A4D" stroke-width="1.5" fill="none" opacity="0.7"/>
  <path d="M 45 54 Q 46 57, 45 60" stroke="#5A6A5D" stroke-width="1" fill="none" opacity="0.5"/>

  <!-- Dorsal fin with rays -->
  <path d="M 130 30 L 125 26 L 128 45 L 135 46 L 142 46 L 149 46 L 156 46 L 159 45 L 162 26 L 157 30 Z" fill="#7A8A7D" stroke="#5A6A5D" stroke-width="1.5" opacity="0.9"/>
  <line x1="130" y1="30" x2="132" y2="45" stroke="#5A6A5D" stroke-width="0.8" opacity="0.5"/>
  <line x1="138" y1="28" x2="140" y2="46" stroke="#5A6A5D" stroke-width="0.8" opacity="0.5"/>
  <line x1="145" y1="27" x2="147" y2="46" stroke="#5A6A5D" stroke-width="0.8" opacity="0.5"/>
  <line x1="153" y1="28" x2="154" y2="46" stroke="#5A6A5D" stroke-width="0.8" opacity="0.5"/>

  <!-- Adipose fin (characteristic of salmonids) -->
  <path d="M 245 40 Q 250 36, 255 40 L 254 45 Q 250 44, 246 45 Z" fill="#7A8A7D" opacity="0.85"/>

  <!-- Pectoral fin with rays -->
  <path d="M 48 61 L 44 76 L 50 82 L 58 84 L 62 80 L 60 66 Z" fill="#A5B5AA" opacity="0.85" stroke="#6A7A6D" stroke-width="1.2"/>
  <line x1="50" y1="64" x2="48" y2="78" stroke="#6A7A6D" stroke-width="0.7" opacity="0.5"/>
  <line x1="54" y1="63" x2="52" y2="80" stroke="#6A7A6D" stroke-width="0.7" opacity="0.5"/>
  <line x1="58" y1="63" x2="56" y2="82" stroke="#6A7A6D" stroke-width="0.7" opacity="0.5"/>

  <!-- Pelvic fins -->
  <path d="M 125 67 L 120 82 L 125 87 L 132 86 L 134 82 L 132 70 Z" fill="#A5B5AA" opacity="0.85" stroke="#6A7A6D" stroke-width="1.2"/>
  <line x1="127" y1="70" x2="124" y2="84" stroke="#6A7A6D" stroke-width="0.7" opacity="0.5"/>

  <!-- Anal fin with rays -->
  <path d="M 210 64 L 205 67 L 208 76 L 218 78 L 228 77 L 235 74 L 238 67 L 232 64 Z" fill="#A5B5AA" opacity="0.85" stroke="#6A7A6D" stroke-width="1.2"/>
  <line x1="214" y1="66" x2="214" y2="77" stroke="#6A7A6D" stroke-width="0.7" opacity="0.5"/>
  <line x1="222" y1="66" x2="223" y2="77" stroke="#6A7A6D" stroke-width="0.7" opacity="0.5"/>
  <line x1="230" y1="66" x2="231" y2="75" stroke="#6A7A6D" stroke-width="0.7" opacity="0.5"/>

  <!-- Forked tail with rays -->
  <path d="M 280 52 Q 300 42, 310 35 L 325 38 L 332 48 L 330 52 L 315 58 L 300 60 L 280 58 Z" fill="#A5B5AA" stroke="#6A7A6D" stroke-width="1.5" opacity="0.9"/>
  <path d="M 280 58 Q 300 60, 310 65 L 325 68 L 332 62 L 330 58 L 315 58 L 300 60 Z" fill="#A5B5AA" stroke="#6A7A6D" stroke-width="1.5" opacity="0.9"/>
  <line x1="286" y1="54" x2="315" y2="42" stroke="#6A7A6D" stroke-width="0.8" opacity="0.5"/>
  <line x1="292" y1="55" x2="320" y2="45" stroke="#6A7A6D" stroke-width="0.8" opacity="0.5"/>
  <line x1="286" y1="58" x2="315" y2="64" stroke="#6A7A6D" stroke-width="0.8" opacity="0.5"/>
  <line x1="292" y1="57" x2="320" y2="62" stroke="#6A7A6D" stroke-width="0.8" opacity="0.5"/>

  <!-- Lake trout vermiculations and spots -->
  <g opacity="0.75">
    <!-- Worm-like patterns on back -->
    <path d="M 70 48 Q 74 47, 78 48 Q 80 50, 78 52" stroke="#D4E4D7" stroke-width="2.5" fill="none" stroke-linecap="round"/>
    <path d="M 92 46 Q 96 45, 100 46 Q 102 48, 100 50" stroke="#D4E4D7" stroke-width="2.5" fill="none" stroke-linecap="round"/>
    <path d="M 114 47 Q 118 46, 122 47 Q 124 49, 122 51" stroke="#D4E4D7" stroke-width="2.5" fill="none" stroke-linecap="round"/>
    <path d="M 168 46 Q 172 45, 176 46 Q 178 48, 176 50" stroke="#D4E4D7" stroke-width="2.5" fill="none" stroke-linecap="round"/>
    <path d="M 190 47 Q 194 46, 198 47 Q 200 49, 198 51" stroke="#D4E4D7" stroke-width="2.5" fill="none" stroke-linecap="round"/>
    <path d="M 212 48 Q 216 47, 220 48 Q 222 50, 220 52" stroke="#D4E4D7" stroke-width="2.5" fill="none" stroke-linecap="round"/>
    <path d="M 234 49 Q 238 48, 242 49 Q 244 51, 242 53" stroke="#D4E4D7" stroke-width="2.5" fill="none" stroke-linecap="round"/>

    <!-- Spots -->
    <circle cx="82" cy="52" r="2.5" fill="#D4E4D7"/>
    <circle cx="105" cy="50" r="2.8" fill="#D4E4D7"/>
    <circle cx="127" cy="51" r="2.5" fill="#D4E4D7"/>
    <circle cx="150" cy="49" r="3" fill="#D4E4D7"/>
    <circle cx="172" cy="52" r="2.5" fill="#D4E4D7"/>
    <circle cx="195" cy="51" r="2.8" fill="#D4E4D7"/>
    <circle cx="218" cy="53" r="2.5" fill="#D4E4D7"/>
    <circle cx="240" cy="54" r="2.8" fill="#D4E4D7"/>

    <circle cx="75" cy="56" r="2.2" fill="#D4E4D7"/>
    <circle cx="98" cy="57" r="2.5" fill="#D4E4D7"/>
    <circle cx="120" cy="58" r="2.3" fill="#D4E4D7"/>
    <circle cx="143" cy="57" r="2.6" fill="#D4E4D7"/>
    <circle cx="165" cy="59" r="2.4" fill="#D4E4D7"/>
    <circle cx="188" cy="58" r="2.5" fill="#D4E4D7"/>
    <circle cx="210" cy="60" r="2.3" fill="#D4E4D7"/>
    <circle cx="233" cy="59" r="2.5" fill="#D4E4D7"/>
    <circle cx="255" cy="56" r="2.2" fill="#D4E4D7"/>
  </g>

  <!-- Body outline with gap at mouth -->
  <path d="M 10 52 Q 20 42, 45 40 Q 100 38, 170 38 Q 240 40, 280 45" stroke="#5A6A5D" stroke-width="1.5" fill="none" opacity="0.4"/>
  <path d="M 10 62 Q 20 72, 45 74 Q 100 76, 170 75 Q 240 73, 280 68" stroke="#5A6A5D" stroke-width="1.5" fill="none" opacity="0.4"/>
</svg>
