<svg xmlns="http://www.w3.org/2000/svg" viewBox="0 0 380 130" width="380" height="130">
  <!-- Lake Trout Option 2 - Simplified game-friendly style -->

  <!-- Body - torpedo shape, cream/tan -->
  <ellipse cx="190" cy="65" rx="170" ry="38" fill="#E0D0B0" stroke="#9B8670" stroke-width="3"/>

  <!-- Olive-tan back -->
  <ellipse cx="190" cy="50" rx="160" ry="15" fill="#B8A080" opacity="0.85"/>

  <!-- Pale belly -->
  <ellipse cx="190" cy="75" rx="155" ry="20" fill="#FFFEF8" opacity="0.9"/>

  <!-- Head -->
  <ellipse cx="30" cy="65" rx="24" ry="28" fill="#C8B898" stroke="#9B8670" stroke-width="2.5"/>

  <!-- Mouth -->
  <path d="M 10 63 L 6 65 L 10 67" stroke="#605048" stroke-width="4.5" fill="none" stroke-linecap="round"/>
  <circle cx="8" cy="65" r="3" fill="#504038"/>

  <!-- Eye -->
  <circle cx="28" cy="61" r="6.5" fill="#E5DAC8"/>
  <circle cx="29" cy="60" r="5" fill="#2A2018"/>
  <circle cx="30.5" cy="59" r="2" fill="#FFFFFF"/>

  <!-- Gill -->
  <path d="M 45 60 Q 52 65, 45 70" stroke="#80705C" stroke-width="3.5" fill="none"/>

  <!-- YELLOW-ORANGE tail - forked -->
  <path d="M 355 50 L 375 42 L 380 52 L 372 61 L 360 65 Z" fill="#F0C050" stroke="#C89020" stroke-width="2.5"/>
  <path d="M 355 80 L 375 88 L 380 78 L 372 61 L 360 65 Z" fill="#F0C050" stroke="#C89020" stroke-width="2.5"/>

  <!-- YELLOW dorsal fin -->
  <path d="M 165 30 L 160 25 L 168 48 L 175 50 L 182 50 L 189 50 L 194 48 L 196 25 L 191 30 Z"
        fill="#F8D060" stroke="#C89020" stroke-width="2"/>

  <!-- YELLOW adipose fin -->
  <ellipse cx="310" cy="48" rx="12" ry="10" fill="#E8C050" stroke="#C09020" stroke-width="2"/>

  <!-- YELLOW pectoral fin -->
  <path d="M 50 72 L 45 88 L 53 93 L 62 92 L 64 84 L 60 74 Z"
        fill="#F0C860" opacity="0.9" stroke="#C89020" stroke-width="2"/>

  <!-- YELLOW pelvic fin -->
  <path d="M 195 80 L 190 94 L 197 98 L 204 96 L 206 90 L 203 82 Z"
        fill="#F0C860" opacity="0.9" stroke="#C89020" stroke-width="2"/>

  <!-- YELLOW anal fin -->
  <path d="M 275 78 L 270 82 L 273 92 L 283 95 L 293 93 L 298 87 L 296 79 Z"
        fill="#F0C860" opacity="0.9" stroke="#C89020" stroke-width="2"/>

  <!-- Light cream spots - organized pattern -->
  <g opacity="0.9">
    <!-- Row 1 -->
    <circle cx="75" cy="52" r="3.5" fill="#FBF5E5"/>
    <circle cx="95" cy="50" r="4" fill="#FBF5E5"/>
    <circle cx="115" cy="52" r="3.5" fill="#FBF5E5"/>
    <circle cx="135" cy="50" r="4" fill="#FBF5E5"/>
    <circle cx="155" cy="52" r="3.5" fill="#FBF5E5"/>
    <circle cx="175" cy="50" r="4" fill="#FBF5E5"/>
    <circle cx="195" cy="52" r="3.5" fill="#FBF5E5"/>
    <circle cx="215" cy="50" r="4" fill="#FBF5E5"/>
    <circle cx="235" cy="52" r="3.5" fill="#FBF5E5"/>
    <circle cx="255" cy="50" r="4" fill="#FBF5E5"/>
    <circle cx="275" cy="52" r="3.5" fill="#FBF5E5"/>
    <circle cx="295" cy="50" r="4" fill="#FBF5E5"/>
    <circle cx="315" cy="52" r="3.5" fill="#FBF5E5"/>

    <!-- Row 2 -->
    <circle cx="85" cy="65" r="3.8" fill="#FBF5E5"/>
    <circle cx="105" cy="65" r="3.5" fill="#FBF5E5"/>
    <circle cx="125" cy="65" r="3.8" fill="#FBF5E5"/>
    <circle cx="145" cy="65" r="3.5" fill="#FBF5E5"/>
    <circle cx="165" cy="65" r="3.8" fill="#FBF5E5"/>
    <circle cx="185" cy="65" r="3.5" fill="#FBF5E5"/>
    <circle cx="205" cy="65" r="3.8" fill="#FBF5E5"/>
    <circle cx="225" cy="65" r="3.5" fill="#FBF5E5"/>
    <circle cx="245" cy="65" r="3.8" fill="#FBF5E5"/>
    <circle cx="265" cy="65" r="3.5" fill="#FBF5E5"/>
    <circle cx="285" cy="65" r="3.8" fill="#FBF5E5"/>
    <circle cx="305" cy="65" r="3.5" fill="#FBF5E5"/>

    <!-- Row 3 -->
    <circle cx="80" cy="75" r="3.2" fill="#FBF5E5"/>
    <circle cx="100" cy="77" r="3.5" fill="#FBF5E5"/>
    <circle cx="120" cy="75" r="3.2" fill="#FBF5E5"/>
    <circle cx="140" cy="77" r="3.5" fill="#FBF5E5"/>
    <circle cx="160" cy="75" r="3.2" fill="#FBF5E5"/>
    <circle cx="180" cy="77" r="3.5" fill="#FBF5E5"/>
    <circle cx="200" cy="75" r="3.2" fill="#FBF5E5"/>
    <circle cx="220" cy="77" r="3.5" fill="#FBF5E5"/>
    <circle cx="240" cy="75" r="3.2" fill="#FBF5E5"/>
    <circle cx="260" cy="77" r="3.5" fill="#FBF5E5"/>
    <circle cx="280" cy="75" r="3.2" fill="#FBF5E5"/>
    <circle cx="300" cy="77" r="3.5" fill="#FBF5E5"/>
  </g>
</svg>
