<svg xmlns="http://www.w3.org/2000/svg" viewBox="0 0 400 140" width="400" height="140">
  <!-- Lake Trout Option A - Simplified Clean Style -->
  <!-- Built from scratch to match reference photos -->

  <!-- STEP 1: Body Outline - torpedo shaped -->
  <path d="M 20 70 Q 15 65, 12 70 Q 15 75, 20 74 L 60 76 Q 180 80, 280 76 L 310 74 Q 320 72, 320 70 Q 320 68, 310 66 L 280 64 Q 180 60, 60 64 L 20 66 Z"
        fill="#E4D4BC" stroke="#B8A890" stroke-width="2"/>

  <!-- Belly - very pale cream/white -->
  <path d="M 25 70 Q 70 75, 180 76 Q 280 75, 315 70 Q 280 73, 180 74 Q 70 73, 25 70 Z"
        fill="#F8F4ED" opacity="0.95"/>

  <!-- Back - light olive-tan -->
  <path d="M 25 70 Q 70 65, 180 64 Q 280 65, 315 70 Q 280 67, 180 66 Q 70 67, 25 70 Z"
        fill="#D0C0A0" opacity="0.9"/>

  <!-- Head -->
  <path d="M 20 66 L 15 62 L 8 60 L 3 64 L 1 70 L 3 76 L 8 80 L 15 78 L 20 74 Z"
        fill="#D8C8B0" stroke="#B8A890" stroke-width="1.5"/>

  <!-- Open mouth -->
  <path d="M 3 64 L 1 70 L 3 76" stroke="#90786C" stroke-width="3.5" fill="none" stroke-linecap="round"/>
  <ellipse cx="2" cy="70" rx="2.5" ry="4" fill="#78645C"/>

  <!-- Eye -->
  <circle cx="14" cy="66" r="5" fill="#E8DDD0"/>
  <circle cx="15" cy="65" r="3.5" fill="#2C2420"/>
  <circle cx="16" cy="64" r="1.2" fill="#FFFFFF"/>

  <!-- Gill plate -->
  <path d="M 18 64 Q 24 66, 26 70 Q 24 74, 18 76 L 17 74 Q 22 72, 24 70 Q 22 68, 17 66 Z"
        fill="#E4D4BC" stroke="#B8A890" stroke-width="1.8"/>
  <path d="M 18 66 Q 20 70, 18 74" stroke="#A89480" stroke-width="2.5" fill="none"/>

  <!-- STEP 2 & 3: Tail - forked, YELLOW-ORANGE -->
  <path d="M 310 66 Q 330 58, 345 52 L 360 54 L 370 62 L 368 66 L 350 72 L 320 70 Z"
        fill="#E8B848" stroke="#C89830" stroke-width="2" opacity="0.95"/>
  <path d="M 310 74 Q 330 82, 345 88 L 360 86 L 370 78 L 368 74 L 350 72 L 320 70 Z"
        fill="#E8B848" stroke="#C89830" stroke-width="2" opacity="0.95"/>
  <!-- Tail pale edge highlight -->
  <path d="M 345 52 L 360 54 L 370 62" stroke="#F8E0A0" stroke-width="1.5" fill="none" opacity="0.8"/>
  <path d="M 345 88 L 360 86 L 370 78" stroke="#F8E0A0" stroke-width="1.5" fill="none" opacity="0.8"/>

  <!-- STEP 3: Fins - YELLOW-ORANGE tinted -->

  <!-- Dorsal fin -->
  <path d="M 140 42 L 135 38 L 138 60 L 145 62 L 152 62 L 159 62 L 166 62 L 169 60 L 172 38 L 167 42 Z"
        fill="#E0A848" stroke="#C08830" stroke-width="1.5" opacity="0.9"/>
  <line x1="142" y1="42" x2="143" y2="60" stroke="#C89838" stroke-width="0.8" opacity="0.6"/>
  <line x1="152" y1="40" x2="153" y2="62" stroke="#C89838" stroke-width="0.8" opacity="0.6"/>
  <line x1="162" y1="40" x2="163" y2="62" stroke="#C89838" stroke-width="0.8" opacity="0.6"/>

  <!-- Adipose fin -->
  <path d="M 270 54 Q 275 50, 280 54 L 278 58 Q 275 57, 272 58 Z"
        fill="#E0A848" opacity="0.85"/>

  <!-- Pectoral fin - YELLOW-ORANGE -->
  <path d="M 24 76 L 20 92 L 26 98 L 35 100 L 40 96 L 38 80 Z"
        fill="#F0C060" opacity="0.88" stroke="#D0A040" stroke-width="1.3"/>
  <line x1="28" y1="80" x2="24" y2="94" stroke="#D8A848" stroke-width="0.7" opacity="0.5"/>
  <line x1="32" y1="79" x2="29" y2="97" stroke="#D8A848" stroke-width="0.7" opacity="0.5"/>
  <line x1="36" y1="79" x2="34" y2="99" stroke="#D8A848" stroke-width="0.7" opacity="0.5"/>

  <!-- Pelvic fins - YELLOW-ORANGE -->
  <path d="M 155 78 L 150 94 L 155 100 L 163 99 L 166 94 L 164 82 Z"
        fill="#F0C060" opacity="0.88" stroke="#D0A040" stroke-width="1.3"/>
  <line x1="157" y1="82" x2="154" y2="96" stroke="#D8A848" stroke-width="0.7" opacity="0.5"/>

  <!-- Anal fin - YELLOW-ORANGE -->
  <path d="M 235 77 L 230 81 L 232 90 L 242 93 L 252 92 L 260 88 L 262 81 L 256 77 Z"
        fill="#F0C060" opacity="0.88" stroke="#D0A040" stroke-width="1.3"/>
  <line x1="240" y1="79" x2="240" y2="92" stroke="#D8A848" stroke-width="0.7" opacity="0.5"/>
  <line x1="248" y1="79" x2="249" y2="92" stroke="#D8A848" stroke-width="0.7" opacity="0.5"/>

  <!-- STEP 4: Spots - light cream/white like in photos -->
  <g opacity="0.85">
    <!-- Random scattered spots across body -->
    <circle cx="70" cy="64" r="2.8" fill="#F8F0E0"/>
    <circle cx="85" cy="62" r="3.2" fill="#F8F0E0"/>
    <circle cx="100" cy="65" r="2.5" fill="#F8F0E0"/>
    <circle cx="115" cy="63" r="3" fill="#F8F0E0"/>
    <circle cx="130" cy="66" r="2.8" fill="#F8F0E0"/>
    <circle cx="145" cy="64" r="3.2" fill="#F8F0E0"/>
    <circle cx="160" cy="67" r="2.5" fill="#F8F0E0"/>
    <circle cx="175" cy="65" r="3" fill="#F8F0E0"/>
    <circle cx="190" cy="68" r="2.8" fill="#F8F0E0"/>
    <circle cx="205" cy="66" r="3.2" fill="#F8F0E0"/>
    <circle cx="220" cy="69" r="2.5" fill="#F8F0E0"/>
    <circle cx="235" cy="67" r="3" fill="#F8F0E0"/>
    <circle cx="250" cy="70" r="2.8" fill="#F8F0E0"/>
    <circle cx="265" cy="68" r="3.2" fill="#F8F0E0"/>
    <circle cx="280" cy="71" r="2.5" fill="#F8F0E0"/>

    <circle cx="78" cy="69" r="2.5" fill="#F8F0E0"/>
    <circle cx="93" cy="71" r="2.8" fill="#F8F0E0"/>
    <circle cx="108" cy="70" r="3" fill="#F8F0E0"/>
    <circle cx="123" cy="72" r="2.6" fill="#F8F0E0"/>
    <circle cx="138" cy="71" r="3.2" fill="#F8F0E0"/>
    <circle cx="153" cy="73" r="2.5" fill="#F8F0E0"/>
    <circle cx="168" cy="72" r="3" fill="#F8F0E0"/>
    <circle cx="183" cy="74" r="2.8" fill="#F8F0E0"/>
    <circle cx="198" cy="73" r="3.2" fill="#F8F0E0"/>
    <circle cx="213" cy="75" r="2.5" fill="#F8F0E0"/>
    <circle cx="228" cy="74" r="3" fill="#F8F0E0"/>
    <circle cx="243" cy="76" r="2.8" fill="#F8F0E0"/>
    <circle cx="258" cy="75" r="3.2" fill="#F8F0E0"/>
    <circle cx="273" cy="77" r="2.5" fill="#F8F0E0"/>

    <!-- More spots on back -->
    <circle cx="62" cy="67" r="2.5" fill="#F8F0E0"/>
    <circle cx="110" cy="68" r="2.8" fill="#F8F0E0"/>
    <circle cx="155" cy="66" r="2.5" fill="#F8F0E0"/>
    <circle cx="200" cy="69" r="3" fill="#F8F0E0"/>
    <circle cx="245" cy="67" r="2.8" fill="#F8F0E0"/>
    <circle cx="290" cy="70" r="2.5" fill="#F8F0E0"/>
  </g>

  <!-- Body outline highlight -->
  <path d="M 12 70 Q 25 58, 60 56 Q 180 52, 280 56 Q 310 58, 320 66"
        stroke="#B8A890" stroke-width="1.2" fill="none" opacity="0.5"/>
  <path d="M 12 70 Q 25 82, 60 84 Q 180 88, 280 84 Q 310 82, 320 74"
        stroke="#B8A890" stroke-width="1.2" fill="none" opacity="0.5"/>
</svg>
