<svg xmlns="http://www.w3.org/2000/svg" viewBox="0 0 420 150" width="420" height="150">
  <!-- Lake Trout Option 1 - Clean style based on real fish photos -->

  <defs>
    <!-- Body gradient - pale cream to tan -->
    <linearGradient id="troutBody1" x1="0%" y1="0%" x2="0%" y2="100%">
      <stop offset="0%" style="stop-color:#B8A888;stop-opacity:1" />
      <stop offset="35%" style="stop-color:#D8C8A8;stop-opacity:1" />
      <stop offset="70%" style="stop-color:#F0E8D8;stop-opacity:1" />
      <stop offset="100%" style="stop-color:#FFFDF8;stop-opacity:1" />
    </linearGradient>

    <!-- Yellow-orange fin gradient -->
    <linearGradient id="finYellow1" x1="0%" y1="0%" x2="0%" y2="100%">
      <stop offset="0%" style="stop-color:#F8D870;stop-opacity:1" />
      <stop offset="100%" style="stop-color:#E8B040;stop-opacity:0.95" />
    </linearGradient>
  </defs>

  <!-- Body outline - torpedo shape -->
  <path d="M 40 75 Q 35 71, 32 75 Q 35 79, 40 78
           C 65 80, 100 83, 150 84
           C 220 85, 290 85, 340 83
           C 365 82, 385 81, 390 75
           Q 392 72, 390 69
           C 385 69, 365 68, 340 67
           C 290 65, 220 65, 150 66
           C 100 67, 65 70, 40 72 Z"
        fill="url(#troutBody1)" stroke="#A08870" stroke-width="2.5"/>

  <!-- Olive-tan back -->
  <path d="M 40 72 C 100 67, 220 65, 340 67 Q 385 68, 390 69
           Q 390 71, 385 72 C 365 72, 340 72, 290 71
           C 220 70, 150 70, 100 70 C 65 70, 50 71, 40 72 Z"
        fill="#C8B090" opacity="0.85"/>

  <!-- Pale white belly -->
  <path d="M 45 75 C 110 78, 230 79, 350 76
           Q 350 76.5, 345 77 C 290 78, 220 78, 150 78 C 100 78, 60 77, 45 76 Z"
        fill="#FFFDF5" opacity="0.95"/>

  <!-- Head -->
  <path d="M 40 72 L 33 69 L 25 67 L 18 68 L 13 71 L 11 75 L 13 79 L 18 82 L 25 83 L 33 81 L 40 78 Z"
        fill="#D0C0A0" stroke="#A08870" stroke-width="2"/>

  <!-- Mouth -->
  <path d="M 13 71 L 9 73 L 7 75 L 9 77 L 13 79"
        stroke="#706858" stroke-width="4" fill="none" stroke-linecap="round"/>
  <ellipse cx="8.5" cy="75" rx="3" ry="5" fill="#605048"/>

  <!-- Eye -->
  <circle cx="28" cy="72" r="6" fill="#E8DED0"/>
  <circle cx="29" cy="71" r="4.5" fill="#2C2420"/>
  <circle cx="30" cy="70" r="1.5" fill="#FFFFFF"/>

  <!-- Gill plate -->
  <path d="M 37 70 Q 46 72, 48 75 Q 46 80, 37 82 L 35 80 Q 43 78, 45 75 Q 43 72, 35 70 Z"
        fill="#D8C8A8" stroke="#A08870" stroke-width="2"/>
  <path d="M 37 71 Q 40 75, 37 79" stroke="#907868" stroke-width="2.8" fill="none"/>

  <!-- Forked tail - YELLOW-ORANGE -->
  <path d="M 385 69 Q 405 62, 415 57 L 410 68 L 395 76 L 390 75 Z"
        fill="url(#finYellow1)" stroke="#C89020" stroke-width="2.2"/>
  <path d="M 385 81 Q 405 88, 415 93 L 410 68 L 395 76 L 390 75 Z"
        fill="url(#finYellow1)" stroke="#C89020" stroke-width="2.2"/>
  <!-- Tail highlight -->
  <path d="M 413 58 L 410 68 L 413 92" stroke="#F8E898" stroke-width="1.5" fill="none" opacity="0.7"/>

  <!-- Dorsal fin - YELLOW-ORANGE -->
  <path d="M 180 50 L 175 46 L 178 68 L 185 70 L 192 70 L 199 70 L 206 70 L 209 68 L 211 46 L 206 50 Z"
        fill="url(#finYellow1)" stroke="#C89020" stroke-width="1.8"/>
  <line x1="183" y1="52" x2="183" y2="69" stroke="#D8A030" stroke-width="1" opacity="0.6"/>
  <line x1="193" y1="50" x2="193" y2="70" stroke="#D8A030" stroke-width="1" opacity="0.6"/>
  <line x1="203" y1="52" x2="203" y2="69" stroke="#D8A030" stroke-width="1" opacity="0.6"/>

  <!-- Adipose fin - YELLOW -->
  <ellipse cx="335" cy="62" rx="10" ry="8" fill="#E8C050" opacity="0.9" stroke="#C89820" stroke-width="1.5"/>

  <!-- Pectoral fin - YELLOW-ORANGE -->
  <path d="M 48 80 L 43 96 L 49 102 L 58 104 L 64 100 L 62 85 Z"
        fill="url(#finYellow1)" opacity="0.92" stroke="#C89020" stroke-width="1.7"/>
  <line x1="52" y1="86" x2="47" y2="98" stroke="#D8A030" stroke-width="0.9" opacity="0.5"/>
  <line x1="56" y1="85" x2="52" y2="102" stroke="#D8A030" stroke-width="0.9" opacity="0.5"/>
  <line x1="60" y1="85" x2="57" y2="103" stroke="#D8A030" stroke-width="0.9" opacity="0.5"/>

  <!-- Pelvic fins - YELLOW-ORANGE -->
  <path d="M 210 86 L 204 102 L 210 108 L 219 107 L 223 102 L 221 90 Z"
        fill="url(#finYellow1)" opacity="0.92" stroke="#C89020" stroke-width="1.7"/>
  <line x1="213" y1="90" x2="208" y2="104" stroke="#D8A030" stroke-width="0.9" opacity="0.5"/>

  <!-- Anal fin - YELLOW-ORANGE -->
  <path d="M 300 85 L 294 90 L 296 100 L 307 103 L 318 102 L 326 97 L 328 90 L 321 85 Z"
        fill="url(#finYellow1)" opacity="0.92" stroke="#C89020" stroke-width="1.7"/>
  <line x1="305" y1="87" x2="305" y2="102" stroke="#D8A030" stroke-width="0.9" opacity="0.5"/>
  <line x1="314" y1="87" x2="315" y2="102" stroke="#D8A030" stroke-width="0.9" opacity="0.5"/>

  <!-- Light cream/white spots - scattered pattern -->
  <g opacity="0.9">
    <!-- Upper spots -->
    <circle cx="85" cy="70" r="3" fill="#FBF5E8"/>
    <circle cx="105" cy="68" r="3.5" fill="#FBF5E8"/>
    <circle cx="125" cy="71" r="3" fill="#FBF5E8"/>
    <circle cx="145" cy="69" r="3.5" fill="#FBF5E8"/>
    <circle cx="165" cy="72" r="3" fill="#FBF5E8"/>
    <circle cx="185" cy="70" r="3.5" fill="#FBF5E8"/>
    <circle cx="205" cy="73" r="3" fill="#FBF5E8"/>
    <circle cx="225" cy="71" r="3.5" fill="#FBF5E8"/>
    <circle cx="245" cy="74" r="3" fill="#FBF5E8"/>
    <circle cx="265" cy="72" r="3.5" fill="#FBF5E8"/>
    <circle cx="285" cy="75" r="3" fill="#FBF5E8"/>
    <circle cx="305" cy="73" r="3.5" fill="#FBF5E8"/>
    <circle cx="325" cy="76" r="3" fill="#FBF5E8"/>
    <circle cx="345" cy="74" r="3.5" fill="#FBF5E8"/>

    <!-- Mid spots -->
    <circle cx="75" cy="76" r="2.8" fill="#FBF5E8"/>
    <circle cx="95" cy="77" r="3.2" fill="#FBF5E8"/>
    <circle cx="115" cy="76" r="2.8" fill="#FBF5E8"/>
    <circle cx="135" cy="78" r="3.2" fill="#FBF5E8"/>
    <circle cx="155" cy="77" r="2.8" fill="#FBF5E8"/>
    <circle cx="175" cy="79" r="3.2" fill="#FBF5E8"/>
    <circle cx="195" cy="78" r="2.8" fill="#FBF5E8"/>
    <circle cx="215" cy="80" r="3.2" fill="#FBF5E8"/>
    <circle cx="235" cy="79" r="2.8" fill="#FBF5E8"/>
    <circle cx="255" cy="81" r="3.2" fill="#FBF5E8"/>
    <circle cx="275" cy="80" r="2.8" fill="#FBF5E8"/>
    <circle cx="295" cy="82" r="3.2" fill="#FBF5E8"/>
    <circle cx="315" cy="81" r="2.8" fill="#FBF5E8"/>
    <circle cx="335" cy="83" r="3.2" fill="#FBF5E8"/>

    <!-- Additional scattered spots -->
    <circle cx="90" cy="73" r="2.5" fill="#FBF5E8"/>
    <circle cx="130" cy="74" r="2.5" fill="#FBF5E8"/>
    <circle cx="170" cy="75" r="2.5" fill="#FBF5E8"/>
    <circle cx="210" cy="76" r="2.5" fill="#FBF5E8"/>
    <circle cx="250" cy="77" r="2.5" fill="#FBF5E8"/>
    <circle cx="290" cy="78" r="2.5" fill="#FBF5E8"/>
    <circle cx="330" cy="79" r="2.5" fill="#FBF5E8"/>
  </g>
</svg>
