<svg xmlns="http://www.w3.org/2000/svg" viewBox="0 0 320 100" width="320" height="100">
  <!-- Lake Trout Version 2 - Cleaner, more stylized approach -->

  <!-- Body base -->
  <path d="M 30 50 Q 20 45, 15 50 L 10 50 L 15 55 Q 20 60, 35 58 L 80 56 Q 180 54, 240 56 L 270 58 Q 290 60, 300 50 Q 290 40, 270 42 L 240 44 Q 180 46, 80 44 L 35 42 Q 25 40, 30 50 Z" fill="#87958A" stroke="#5A6A5D" stroke-width="2"/>

  <!-- Belly lighter section -->
  <path d="M 35 50 Q 80 52, 180 52 Q 240 52, 270 50 Q 240 54, 180 54 Q 80 54, 35 50 Z" fill="#C5D1C9" opacity="0.9"/>

  <!-- Head structure -->
  <path d="M 35 42 L 30 38 L 22 36 L 15 38 L 10 42 L 8 48 L 10 54 L 15 58 L 22 60 L 30 58 L 35 54 Z" fill="#7A8A7D" stroke="#5A6A5D" stroke-width="1.5"/>

  <!-- Mouth opening -->
  <path d="M 10 42 L 5 44 L 3 48 L 5 52 L 10 54" stroke="#4A5A4D" stroke-width="2.5" fill="none" stroke-linecap="round"/>
  <circle cx="4" cy="48" r="2" fill="#3A4A3D"/>

  <!-- Gill plate -->
  <ellipse cx="32" cy="48" rx="8" ry="14" fill="#87958A" stroke="#5A6A5D" stroke-width="1.5" opacity="0.7"/>
  <path d="M 32 36 Q 34 48, 32 60" stroke="#5A6A5D" stroke-width="2.5" fill="none"/>
  <path d="M 35 40 Q 36 48, 35 56" stroke="#6A7A6D" stroke-width="1.5" fill="none" opacity="0.6"/>

  <!-- Eye -->
  <circle cx="25" cy="45" r="6" fill="#E8DED0"/>
  <circle cx="26" cy="44" r="4" fill="#1A1A1A"/>
  <circle cx="27.5" cy="43" r="1.5" fill="#FFFFFF"/>

  <!-- Dorsal fin -->
  <path d="M 120 32 L 110 28 L 115 42 L 125 42 L 135 42 L 140 28 L 130 32 Z" fill="#7A8A7D" stroke="#5A6A5D" stroke-width="1.2" opacity="0.9"/>

  <!-- Adipose fin -->
  <ellipse cx="225" cy="38" rx="8" ry="6" fill="#7A8A7D" opacity="0.85"/>

  <!-- Pectoral fin -->
  <path d="M 38 54 L 32 68 L 40 72 L 48 70 L 45 58 Z" fill="#A0AFA5" opacity="0.8" stroke="#6A7A6D" stroke-width="1"/>

  <!-- Pelvic fins -->
  <path d="M 110 56 L 105 68 L 110 72 L 115 70 L 114 58 Z" fill="#A0AFA5" opacity="0.8" stroke="#6A7A6D" stroke-width="1"/>

  <!-- Anal fin -->
  <path d="M 190 54 L 185 56 L 188 62 L 200 64 L 208 62 L 210 56 L 205 54 Z" fill="#A0AFA5" opacity="0.8" stroke="#6A7A6D" stroke-width="1"/>

  <!-- Tail -->
  <path d="M 270 42 Q 285 35, 295 30 L 310 35 L 315 45 L 310 50 L 300 50 L 270 50 L 300 50 L 310 50 L 315 55 L 310 65 L 295 70 Q 285 65, 270 58 Z" fill="#A0AFA5" stroke="#6A7A6D" stroke-width="1.5" opacity="0.9"/>

  <!-- Spots pattern - organized in rows -->
  <g opacity="0.8">
    <!-- Upper spots -->
    <ellipse cx="75" cy="44" rx="3" ry="2.5" fill="#D8E8DB"/>
    <ellipse cx="95" cy="42" rx="3.5" ry="3" fill="#D8E8DB"/>
    <ellipse cx="115" cy="43" rx="3" ry="2.5" fill="#D8E8DB"/>
    <ellipse cx="135" cy="41" rx="3.5" ry="3" fill="#D8E8DB"/>
    <ellipse cx="155" cy="43" rx="3" ry="2.5" fill="#D8E8DB"/>
    <ellipse cx="175" cy="42" rx="3.5" ry="3" fill="#D8E8DB"/>
    <ellipse cx="195" cy="44" rx="3" ry="2.5" fill="#D8E8DB"/>
    <ellipse cx="215" cy="43" rx="3.5" ry="3" fill="#D8E8DB"/>
    <ellipse cx="235" cy="45" rx="3" ry="2.5" fill="#D8E8DB"/>

    <!-- Middle spots -->
    <ellipse cx="65" cy="50" rx="3" ry="2.5" fill="#D8E8DB"/>
    <ellipse cx="85" cy="49" rx="3.5" ry="3" fill="#D8E8DB"/>
    <ellipse cx="105" cy="50" rx="3" ry="2.5" fill="#D8E8DB"/>
    <ellipse cx="125" cy="48" rx="3.5" ry="3" fill="#D8E8DB"/>
    <ellipse cx="145" cy="50" rx="3" ry="2.5" fill="#D8E8DB"/>
    <ellipse cx="165" cy="49" rx="3.5" ry="3" fill="#D8E8DB"/>
    <ellipse cx="185" cy="50" rx="3" ry="2.5" fill="#D8E8DB"/>
    <ellipse cx="205" cy="48" rx="3.5" ry="3" fill="#D8E8DB"/>
    <ellipse cx="225" cy="50" rx="3" ry="2.5" fill="#D8E8DB"/>
    <ellipse cx="245" cy="49" rx="3.5" ry="3" fill="#D8E8DB"/>

    <!-- Lower spots -->
    <ellipse cx="70" cy="55" rx="3" ry="2.5" fill="#D8E8DB"/>
    <ellipse cx="90" cy="56" rx="3.5" ry="3" fill="#D8E8DB"/>
    <ellipse cx="110" cy="54" rx="3" ry="2.5" fill="#D8E8DB"/>
    <ellipse cx="130" cy="55" rx="3.5" ry="3" fill="#D8E8DB"/>
    <ellipse cx="150" cy="56" rx="3" ry="2.5" fill="#D8E8DB"/>
    <ellipse cx="170" cy="55" rx="3.5" ry="3" fill="#D8E8DB"/>
    <ellipse cx="190" cy="54" rx="3" ry="2.5" fill="#D8E8DB"/>
    <ellipse cx="210" cy="55" rx="3.5" ry="3" fill="#D8E8DB"/>

    <!-- Tail spots -->
    <ellipse cx="255" cy="46" rx="2.5" ry="2" fill="#D8E8DB"/>
    <ellipse cx="265" cy="48" rx="2.5" ry="2" fill="#D8E8DB"/>
    <ellipse cx="275" cy="52" rx="2.5" ry="2" fill="#D8E8DB"/>
    <ellipse cx="260" cy="53" rx="2.5" ry="2" fill="#D8E8DB"/>
  </g>
</svg>
