<svg xmlns="http://www.w3.org/2000/svg" viewBox="0 0 440 160" width="440" height="160">
  <!-- Lake Trout Option C - Highly Realistic Detail -->

  <defs>
    <!-- Complex body gradient -->
    <linearGradient id="bodyRealistic" x1="0%" y1="0%" x2="0%" y2="100%">
      <stop offset="0%" style="stop-color:#B8A888;stop-opacity:1" />
      <stop offset="20%" style="stop-color:#C8B898;stop-opacity:1" />
      <stop offset="50%" style="stop-color:#E0D0B8;stop-opacity:1" />
      <stop offset="80%" style="stop-color:#F0E8D8;stop-opacity:1" />
      <stop offset="100%" style="stop-color:#FFFEF8;stop-opacity:1" />
    </linearGradient>

    <!-- Fin realistic gradient -->
    <linearGradient id="finRealistic" x1="0%" y1="0%" x2="100%" y2="100%">
      <stop offset="0%" style="stop-color:#F8D878;stop-opacity:1" />
      <stop offset="50%" style="stop-color:#F0C060;stop-opacity:1" />
      <stop offset="100%" style="stop-color:#D8A038;stop-opacity:0.95" />
    </linearGradient>

    <!-- Tail gradient -->
    <radialGradient id="tailRealistic">
      <stop offset="0%" style="stop-color:#F8D070;stop-opacity:1" />
      <stop offset="60%" style="stop-color:#E8B850;stop-opacity:0.98" />
      <stop offset="100%" style="stop-color:#D09830;stop-opacity:0.92" />
    </radialGradient>

    <!-- Shadow gradient -->
    <radialGradient id="shadowGrad">
      <stop offset="0%" style="stop-color:#8B7B6B;stop-opacity:0.3" />
      <stop offset="100%" style="stop-color:#8B7B6B;stop-opacity:0" />
    </radialGradient>
  </defs>

  <!-- Shadow/depth -->
  <ellipse cx="220" cy="95" rx="155" ry="22" fill="url(#shadowGrad)"/>

  <!-- STEP 1: Body outline - anatomically correct -->
  <path d="M 35 80 Q 30 75, 27 80 Q 30 85, 35 84
           C 60 86, 95 89, 140 90
           C 200 91, 260 91, 310 89
           C 345 88, 370 86, 375 80
           Q 378 77, 375 74
           C 370 74, 345 72, 310 71
           C 260 69, 200 69, 140 70
           C 95 71, 60 74, 35 76 Z"
        fill="url(#bodyRealistic)" stroke="#9B8670" stroke-width="2.5"/>

  <!-- Darker olive back layer -->
  <path d="M 35 76 C 95 71, 200 69, 310 71 Q 370 72, 375 74
           Q 375 76, 370 77 Q 345 78, 310 78
           C 260 77, 200 76, 140 76
           C 95 76, 60 77, 35 78 Z"
        fill="#B8A080" opacity="0.75"/>

  <!-- Mid-tone layer -->
  <path d="M 40 80 C 100 78, 205 77, 315 78
           Q 325 78, 320 79
           C 265 80, 205 80, 140 80
           C 95 80, 60 80, 40 80 Z"
        fill="#D8C8A8" opacity="0.8"/>

  <!-- Bright belly -->
  <path d="M 45 80 C 105 82, 210 83, 320 81
           Q 325 81, 320 80
           C 265 81, 210 81, 140 81
           C 95 81, 65 81, 45 80 Z"
        fill="#FFFDF5" opacity="0.92"/>

  <!-- Lateral line -->
  <path d="M 40 79 Q 140 78, 240 78 Q 310 78, 360 79"
        stroke="#A89070" stroke-width="0.8" fill="none" opacity="0.4" stroke-dasharray="4,2"/>

  <!-- Head - detailed structure -->
  <path d="M 35 76 L 28 72 L 20 69 L 13 70 L 8 74 L 6 78 L 5 80 L 5 82 L 6 86 L 8 90 L 13 94 L 20 95 L 28 92 L 35 84 Z"
        fill="#D0C0A0" stroke="#9B8670" stroke-width="2"/>

  <!-- Snout/nose detail -->
  <path d="M 20 69 L 13 70 L 8 74 L 6 78 L 5 80 L 5 82 L 6 86 L 8 90 L 13 94 L 20 95
           L 19 91 L 17 86 L 16 80 L 17 74 Z"
        fill="#B8A888"/>

  <!-- Nostril -->
  <ellipse cx="17" cy="76" rx="1.2" ry="0.8" fill="#786450" opacity="0.7"/>

  <!-- Open mouth - very detailed -->
  <path d="M 8 74 L 4 76 L 2 80 L 4 84 L 8 86"
        stroke="#685448" stroke-width="5" fill="none" stroke-linecap="round"/>
  <ellipse cx="3.5" cy="80" rx="3.5" ry="6" fill="#544038" opacity="0.85"/>
  <!-- Inner mouth detail -->
  <path d="M 8 76 L 10 80 L 8 84" stroke="#806858" stroke-width="2" fill="none"/>
  <ellipse cx="6" cy="80" rx="2" ry="3" fill="#402C28" opacity="0.6"/>
  <!-- Teeth suggestion -->
  <path d="M 7 77 L 7.5 78 M 7.5 82 L 7 83" stroke="#988878" stroke-width="0.8" opacity="0.5"/>

  <!-- Eye - very detailed -->
  <ellipse cx="24" cy="76" rx="7" ry="6.5" fill="#F5EBD8"/>
  <circle cx="25" cy="75" r="5" fill="#2A2010"/>
  <circle cx="26.5" cy="73.5" r="2" fill="#FFFFFF" opacity="0.95"/>
  <circle cx="24" cy="76.5" r="1.5" fill="#505040" opacity="0.3"/>
  <path d="M 19 76 Q 24 72, 29 76" stroke="#9B8670" stroke-width="1.2" fill="none" opacity="0.5"/>
  <path d="M 19.5 77 Q 24 80, 28.5 77" stroke="#9B8670" stroke-width="1" fill="none" opacity="0.4"/>

  <!-- Gill plate - highly detailed -->
  <path d="M 32 74 Q 42 76, 45 80 Q 42 86, 32 88
           L 30 86 Q 39 83, 42 80 Q 39 77, 30 74 Z"
        fill="#D8C8A8" stroke="#9B8670" stroke-width="2.2" opacity="0.96"/>

  <!-- Gill opening with multiple radiating lines -->
  <path d="M 32 75 Q 34 80, 32 85" stroke="#785848" stroke-width="3.5" fill="none" opacity="0.75"/>
  <path d="M 35 76 Q 37 80, 35 84" stroke="#886858" stroke-width="2.5" fill="none" opacity="0.6"/>
  <path d="M 38 77 Q 39 80, 38 83" stroke="#988878" stroke-width="1.8" fill="none" opacity="0.5"/>
  <path d="M 40 77.5 Q 41 80, 40 82.5" stroke="#A89888" stroke-width="1.2" fill="none" opacity="0.4"/>

  <!-- Gill membrane detail -->
  <path d="M 32 78 L 30 78" stroke="#685848" stroke-width="1.5" opacity="0.5"/>
  <path d="M 32 82 L 30 82" stroke="#685848" stroke-width="1.5" opacity="0.5"/>

  <!-- STEP 2: Tail - forked, yellow-orange with detail -->
  <path d="M 370 74 Q 398 64, 415 57
           L 432 59 L 433 68 L 425 77 L 400 85 L 375 80 Z"
        fill="url(#tailRealistic)" stroke="#B88820" stroke-width="2.2"/>
  <path d="M 370 86 Q 398 96, 415 103
           L 432 101 L 433 92 L 425 77 L 400 85 L 375 80 Z"
        fill="url(#tailRealistic)" stroke="#B88820" stroke-width="2.2"/>

  <!-- Tail fin rays - detailed -->
  <line x1="378" y1="77" x2="418" y2="62" stroke="#D0A040" stroke-width="1.2" opacity="0.7"/>
  <line x1="385" y1="78" x2="428" y2="65" stroke="#D0A040" stroke-width="1.2" opacity="0.7"/>
  <line x1="392" y1="79" x2="430" y2="68" stroke="#D0A040" stroke-width="1" opacity="0.6"/>
  <line x1="378" y1="83" x2="418" y2="98" stroke="#D0A040" stroke-width="1.2" opacity="0.7"/>
  <line x1="385" y1="82" x2="428" y2="95" stroke="#D0A040" stroke-width="1.2" opacity="0.7"/>
  <line x1="392" y1="81" x2="430" y2="92" stroke="#D0A040" stroke-width="1" opacity="0.6"/>

  <!-- Tail highlights -->
  <path d="M 416 58 L 431 60 L 432 68" stroke="#F8E898" stroke-width="2.2" fill="none" opacity="0.8"/>
  <path d="M 416 102 L 431 100 L 432 92" stroke="#F8E898" stroke-width="2.2" fill="none" opacity="0.8"/>

  <!-- Tail edge detail -->
  <path d="M 425 77 Q 428 80, 425 83" stroke="#F0D070" stroke-width="1.5" fill="none" opacity="0.6"/>

  <!-- STEP 3: Fins - all anatomically correct with rays -->

  <!-- Dorsal fin - detailed -->
  <path d="M 180 52 L 173 47 L 175 71 L 184 73 L 193 73 L 202 73 L 211 73 L 220 73 L 229 73 L 232 71 L 234 47 L 227 52 Z"
        fill="url(#finRealistic)" stroke="#B88820" stroke-width="1.8" opacity="0.93"/>
  <!-- Dorsal fin rays -->
  <line x1="182" y1="54" x2="182" y2="72" stroke="#C89830" stroke-width="1.1" opacity="0.6"/>
  <line x1="193" y1="51" x2="193" y2="73" stroke="#C89830" stroke-width="1.1" opacity="0.6"/>
  <line x1="202" y1="50" x2="202" y2="73" stroke="#C89830" stroke-width="1.1" opacity="0.6"/>
  <line x1="211" y1="50" x2="211" y2="73" stroke="#C89830" stroke-width="1.1" opacity="0.6"/>
  <line x1="220" y1="51" x2="220" y2="73" stroke="#C89830" stroke-width="1.1" opacity="0.6"/>
  <line x1="227" y1="53" x2="228" y2="72" stroke="#C89830" stroke-width="1.1" opacity="0.6"/>
  <!-- Dorsal membrane detail -->
  <path d="M 175 71 Q 202 69, 232 71" stroke="#E8C060" stroke-width="0.8" fill="none" opacity="0.5"/>

  <!-- Adipose fin -->
  <ellipse cx="330" cy="65" rx="10" ry="8" fill="#E8B040" opacity="0.9" stroke="#C08820" stroke-width="1.3"/>
  <ellipse cx="328" cy="64" rx="4" ry="3" fill="#F8D080" opacity="0.6"/>

  <!-- Pectoral fin - detailed -->
  <path d="M 42 86 L 36 108 L 42 116 L 54 120 L 62 116 L 60 94 Z"
        fill="url(#finRealistic)" opacity="0.92" stroke="#B88820" stroke-width="1.7"/>
  <line x1="46" y1="92" x2="40" y2="111" stroke="#D0A040" stroke-width="1" opacity="0.6"/>
  <line x1="50" y1="91" x2="45" y2="115" stroke="#D0A040" stroke-width="1" opacity="0.6"/>
  <line x1="54" y1="90" x2="50" y2="118" stroke="#D0A040" stroke-width="1" opacity="0.6"/>
  <line x1="58" y1="91" x2="56" y2="119" stroke="#D0A040" stroke-width="1" opacity="0.6"/>

  <!-- Pelvic fins - detailed -->
  <path d="M 205 91 L 198 112 L 204 119 L 215 118 L 220 112 L 218 96 Z"
        fill="url(#finRealistic)" opacity="0.92" stroke="#B88820" stroke-width="1.7"/>
  <line x1="208" y1="96" x2="203" y2="114" stroke="#D0A040" stroke-width="1" opacity="0.6"/>
  <line x1="212" y1="95" x2="208" y2="117" stroke="#D0A040" stroke-width="1" opacity="0.6"/>
  <line x1="216" y1="96" x2="213" y2="117" stroke="#D0A040" stroke-width="1" opacity="0.6"/>

  <!-- Anal fin - detailed -->
  <path d="M 290 90 L 283 96 L 285 107 L 297 110 L 310 109 L 322 105 L 326 96 L 318 90 Z"
        fill="url(#finRealistic)" opacity="0.92" stroke="#B88820" stroke-width="1.7"/>
  <line x1="295" y1="93" x2="295" y2="109" stroke="#D0A040" stroke-width="1" opacity="0.6"/>
  <line x1="305" y1="92" x2="306" y2="109" stroke="#D0A040" stroke-width="1" opacity="0.6"/>
  <line x1="315" y1="93" x2="316" y2="107" stroke="#D0A040" stroke-width="1" opacity="0.6"/>

  <!-- STEP 4: Spots - realistic varied pattern -->
  <g opacity="0.9">
    <!-- Large irregular spots -->
    <ellipse cx="85" cy="75" rx="4.5" ry="3.8" fill="#FCF8E8" transform="rotate(-10 85 75)"/>
    <ellipse cx="110" cy="73" rx="5" ry="4.2" fill="#FCF8E8" transform="rotate(15 110 73)"/>
    <ellipse cx="135" cy="76" rx="4.2" ry="3.5" fill="#FCF8E8" transform="rotate(-5 135 76)"/>
    <ellipse cx="160" cy="74" rx="4.8" ry="4" fill="#FCF8E8" transform="rotate(20 160 74)"/>
    <ellipse cx="185" cy="77" rx="4.5" ry="3.8" fill="#FCF8E8" transform="rotate(-12 185 77)"/>
    <ellipse cx="210" cy="75" rx="5" ry="4.2" fill="#FCF8E8" transform="rotate(8 210 75)"/>
    <ellipse cx="235" cy="78" rx="4.2" ry="3.5" fill="#FCF8E8" transform="rotate(-15 235 78)"/>
    <ellipse cx="260" cy="76" rx="4.8" ry="4" fill="#FCF8E8" transform="rotate(12 260 76)"/>
    <ellipse cx="285" cy="79" rx="4.5" ry="3.8" fill="#FCF8E8" transform="rotate(-8 285 79)"/>
    <ellipse cx="310" cy="77" rx="5" ry="4.2" fill="#FCF8E8" transform="rotate(18 310 77)"/>
    <ellipse cx="335" cy="80" rx="4.2" ry="3.5" fill="#FCF8E8" transform="rotate(-6 335 80)"/>

    <!-- Medium spots -->
    <circle cx="75" cy="81" r="3.5" fill="#FCF8E8"/>
    <circle cx="100" cy="83" r="3.8" fill="#FCF8E8"/>
    <circle cx="125" cy="82" r="3.2" fill="#FCF8E8"/>
    <circle cx="150" cy="84" r="3.6" fill="#FCF8E8"/>
    <circle cx="175" cy="83" r="3.4" fill="#FCF8E8"/>
    <circle cx="200" cy="85" r="3.7" fill="#FCF8E8"/>
    <circle cx="225" cy="84" r="3.3" fill="#FCF8E8"/>
    <circle cx="250" cy="86" r="3.8" fill="#FCF8E8"/>
    <circle cx="275" cy="85" r="3.5" fill="#FCF8E8"/>
    <circle cx="300" cy="87" r="3.6" fill="#FCF8E8"/>
    <circle cx="325" cy="86" r="3.4" fill="#FCF8E8"/>

    <!-- Small spots scattered -->
    <circle cx="92" cy="77" r="2.5" fill="#FCF8E8"/>
    <circle cx="117" cy="79" r="2.8" fill="#FCF8E8"/>
    <circle cx="142" cy="78" r="2.4" fill="#FCF8E8"/>
    <circle cx="167" cy="80" r="2.7" fill="#FCF8E8"/>
    <circle cx="192" cy="79" r="2.6" fill="#FCF8E8"/>
    <circle cx="217" cy="81" r="2.9" fill="#FCF8E8"/>
    <circle cx="242" cy="80" r="2.5" fill="#FCF8E8"/>
    <circle cx="267" cy="82" r="2.8" fill="#FCF8E8"/>
    <circle cx="292" cy="81" r="2.6" fill="#FCF8E8"/>
    <circle cx="317" cy="83" r="2.7" fill="#FCF8E8"/>

    <!-- Upper spots -->
    <circle cx="95" cy="73" r="2.8" fill="#FCF8E8"/>
    <circle cx="130" cy="71" r="3.1" fill="#FCF8E8"/>
    <circle cx="165" cy="72" r="2.7" fill="#FCF8E8"/>
    <circle cx="200" cy="70" r="3" fill="#FCF8E8"/>
    <circle cx="235" cy="71" r="2.9" fill="#FCF8E8"/>
    <circle cx="270" cy="73" r="2.8" fill="#FCF8E8"/>
    <circle cx="305" cy="72" r="3.1" fill="#FCF8E8"/>
  </g>

  <!-- Body shading/dimension -->
  <path d="M 35 84 C 95 87, 200 88, 310 87 Q 345 86, 370 85"
        stroke="#B8A080" stroke-width="1.5" fill="none" opacity="0.3"/>
</svg>
