<svg xmlns="http://www.w3.org/2000/svg" viewBox="0 0 300 120" width="300" height="120">
  <!-- Lake Trout Vector Art -->

  <!-- Main body -->
  <ellipse cx="150" cy="60" rx="130" ry="35" fill="#8B9B8E" opacity="0.95"/>

  <!-- Belly (lighter) -->
  <ellipse cx="150" cy="75" rx="120" ry="20" fill="#C8D4CC" opacity="0.9"/>

  <!-- Head shape -->
  <ellipse cx="35" cy="60" rx="30" ry="32" fill="#7A8A7D"/>

  <!-- Mouth -->
  <path d="M 10 60 Q 15 55, 20 58 Q 15 62, 10 60 Z" fill="#6B7B6E" stroke="#5A6A5D" stroke-width="1"/>

  <!-- Eye -->
  <circle cx="30" cy="55" r="5" fill="#F5E6D3"/>
  <circle cx="31" cy="54" r="3" fill="#2C2C2C"/>
  <circle cx="32" cy="53" r="1" fill="#FFFFFF"/>

  <!-- Dorsal fin -->
  <path d="M 120 32 Q 140 20, 160 30 L 155 40 Q 140 35, 125 38 Z" fill="#7A8A7D" opacity="0.85"/>

  <!-- Adipose fin (small rear dorsal fin characteristic of trout) -->
  <path d="M 220 38 Q 225 32, 230 37 L 228 42 Q 225 40, 222 41 Z" fill="#7A8A7D" opacity="0.85"/>

  <!-- Pectoral fin -->
  <path d="M 45 70 Q 35 85, 50 90 Q 50 80, 48 72 Z" fill="#A8B8AB" opacity="0.75"/>

  <!-- Pelvic fin -->
  <path d="M 110 85 Q 105 95, 115 98 Q 115 90, 112 86 Z" fill="#A8B8AB" opacity="0.75"/>

  <!-- Anal fin -->
  <path d="M 180 82 Q 200 85, 210 80 L 205 75 Q 195 78, 185 77 Z" fill="#A8B8AB" opacity="0.75"/>

  <!-- Tail (forked) -->
  <path d="M 270 40 Q 290 30, 295 45 Q 290 50, 280 55 L 270 60 L 280 65 Q 290 70, 295 75 Q 290 90, 270 80 Q 275 60, 270 40 Z" fill="#A8B8AB" opacity="0.85"/>

  <!-- Spots on body (characteristic lake trout pattern) -->
  <circle cx="80" cy="45" r="2.5" fill="#D4E4D7" opacity="0.8"/>
  <circle cx="95" cy="50" r="2" fill="#D4E4D7" opacity="0.8"/>
  <circle cx="110" cy="48" r="2.5" fill="#D4E4D7" opacity="0.8"/>
  <circle cx="125" cy="55" r="2" fill="#D4E4D7" opacity="0.8"/>
  <circle cx="140" cy="52" r="2.5" fill="#D4E4D7" opacity="0.8"/>
  <circle cx="155" cy="58" r="2" fill="#D4E4D7" opacity="0.8"/>
  <circle cx="170" cy="50" r="2.5" fill="#D4E4D7" opacity="0.8"/>
  <circle cx="185" cy="55" r="2" fill="#D4E4D7" opacity="0.8"/>
  <circle cx="200" cy="52" r="2.5" fill="#D4E4D7" opacity="0.8"/>
  <circle cx="90" cy="60" r="2" fill="#D4E4D7" opacity="0.8"/>
  <circle cx="105" cy="62" r="2.5" fill="#D4E4D7" opacity="0.8"/>
  <circle cx="135" cy="65" r="2" fill="#D4E4D7" opacity="0.8"/>
  <circle cx="150" cy="68" r="2.5" fill="#D4E4D7" opacity="0.8"/>
  <circle cx="165" cy="63" r="2" fill="#D4E4D7" opacity="0.8"/>
  <circle cx="180" cy="67" r="2.5" fill="#D4E4D7" opacity="0.8"/>
  <circle cx="195" cy="65" r="2" fill="#D4E4D7" opacity="0.8"/>
  <circle cx="210" cy="60" r="2.5" fill="#D4E4D7" opacity="0.8"/>

  <!-- More spots for realistic pattern -->
  <circle cx="75" cy="55" r="2" fill="#D4E4D7" opacity="0.8"/>
  <circle cx="115" cy="58" r="2" fill="#D4E4D7" opacity="0.8"/>
  <circle cx="145" cy="47" r="2" fill="#D4E4D7" opacity="0.8"/>
  <circle cx="175" cy="60" r="2" fill="#D4E4D7" opacity="0.8"/>
  <circle cx="190" cy="48" r="2" fill="#D4E4D7" opacity="0.8"/>
  <circle cx="120" cy="70" r="2" fill="#D4E4D7" opacity="0.8"/>
  <circle cx="160" cy="72" r="2" fill="#D4E4D7" opacity="0.8"/>

  <!-- Spots on tail -->
  <circle cx="245" cy="50" r="1.5" fill="#D4E4D7" opacity="0.7"/>
  <circle cx="255" cy="55" r="1.5" fill="#D4E4D7" opacity="0.7"/>
  <circle cx="250" cy="65" r="1.5" fill="#D4E4D7" opacity="0.7"/>
  <circle cx="260" cy="70" r="1.5" fill="#D4E4D7" opacity="0.7"/>

  <!-- Body outline for definition -->
  <ellipse cx="150" cy="60" rx="130" ry="35" fill="none" stroke="#5A6A5D" stroke-width="1.5" opacity="0.5"/>
</svg>
